<?xml version="1.0" encoding="UTF-8"?>
<!DOCTYPE svg PUBLIC "-//W3C//DTD SVG 1.1//EN" "http://www.w3.org/Graphics/SVG/1.1/DTD/svg11.dtd">
<svg xmlns="http://www.w3.org/2000/svg" version="1.1" width="500px" height="500px" style="shape-rendering:geometricPrecision; text-rendering:geometricPrecision; image-rendering:optimizeQuality; fill-rule:evenodd; clip-rule:evenodd" xmlns:xlink="http://www.w3.org/1999/xlink">
<g><path style="opacity:1" fill="#020101" d="M 235.5,-0.5 C 244.833,-0.5 254.167,-0.5 263.5,-0.5C 263.918,0.221579 264.584,0.721579 265.5,1C 270.155,1.49915 274.821,1.66582 279.5,1.5C 288.365,1.7557 297.032,3.08903 305.5,5.5C 305.611,6.11742 305.944,6.61742 306.5,7C 308.473,7.49546 310.473,7.66212 312.5,7.5C 312.611,8.11742 312.944,8.61742 313.5,9C 315.473,9.49546 317.473,9.66212 319.5,9.5C 320.167,9.5 320.833,9.5 321.5,9.5C 323.617,11.6545 326.284,12.6545 329.5,12.5C 331.102,14.0739 333.102,14.7406 335.5,14.5C 336.492,14.3284 337.158,14.6618 337.5,15.5C 337.804,16.1499 338.137,16.8165 338.5,17.5C 344.32,19.9596 350.32,21.9596 356.5,23.5C 357.287,25.1042 358.62,25.7709 360.5,25.5C 362.299,28.3061 364.966,29.6395 368.5,29.5C 368.351,30.552 368.517,31.552 369,32.5C 369.333,32.1667 369.667,31.8333 370,31.5C 372.754,33.1274 375.588,34.6274 378.5,36C 382.838,40.1216 387.838,43.2883 393.5,45.5C 393.973,46.9063 394.973,47.573 396.5,47.5C 396.973,48.9063 397.973,49.573 399.5,49.5C 399.539,50.5832 399.873,51.5832 400.5,52.5C 403.023,54.957 406.023,56.6237 409.5,57.5C 410.035,59.4456 411.368,60.4456 413.5,60.5C 413.525,63.179 414.858,64.5123 417.5,64.5C 418.5,65.1667 419.5,65.8333 420.5,66.5C 421.833,69.8333 424.167,72.1667 427.5,73.5C 428.757,76.4274 430.757,78.7607 433.5,80.5C 434.75,84.0856 437.084,86.7523 440.5,88.5C 441.419,91.0892 443.086,93.0892 445.5,94.5C 445.62,98.6147 447.62,101.281 451.5,102.5C 453.9,104.296 455.567,106.63 456.5,109.5C 456.427,111.027 457.094,112.027 458.5,112.5C 458.427,114.027 459.094,115.027 460.5,115.5C 460.427,117.027 461.094,118.027 462.5,118.5C 462.427,120.027 463.094,121.027 464.5,121.5C 465.674,122.514 466.34,123.847 466.5,125.5C 466.785,131.081 469.118,135.415 473.5,138.5C 473.833,141.167 474.167,143.833 474.5,146.5C 475.5,146.5 476.5,146.5 477.5,146.5C 477.261,151.407 478.928,155.407 482.5,158.5C 482.667,162.673 484,166.34 486.5,169.5C 486.259,171.898 486.926,173.898 488.5,175.5C 489.434,176.568 489.768,177.901 489.5,179.5C 489.41,182.152 490.076,184.485 491.5,186.5C 492.434,187.568 492.768,188.901 492.5,190.5C 492.336,193.187 492.503,195.854 493,198.5C 493.383,199.056 493.883,199.389 494.5,199.5C 494.227,205.216 495.227,210.549 497.5,215.5C 497.5,216.5 497.5,217.5 497.5,218.5C 497.334,223.179 497.501,227.845 498,232.5C 498.232,233.737 498.732,234.737 499.5,235.5C 499.5,247.5 499.5,259.5 499.5,271.5C 498.833,274.5 498.167,277.5 497.5,280.5C 496.291,284.618 495.624,288.951 495.5,293.5C 494.803,300.317 493.47,306.984 491.5,313.5C 490.25,313.577 489.417,314.244 489,315.5C 488.503,318.146 488.336,320.813 488.5,323.5C 486.528,326.084 485.528,329.084 485.5,332.5C 485.204,334.403 484.537,336.07 483.5,337.5C 482.5,337.5 481.5,337.5 480.5,337.5C 480.5,340.167 480.5,342.833 480.5,345.5C 478.166,347.176 477.166,349.509 477.5,352.5C 476.5,352.5 475.5,352.5 474.5,352.5C 473.084,357.91 471.418,363.243 469.5,368.5C 467.75,369.659 466.75,371.326 466.5,373.5C 465.292,374.234 463.959,374.567 462.5,374.5C 462.5,376.5 462.5,378.5 462.5,380.5C 461.094,380.973 460.427,381.973 460.5,383.5C 460.443,384.609 460.11,385.609 459.5,386.5C 458.833,387.167 458.167,387.833 457.5,388.5C 456.094,388.973 455.427,389.973 455.5,391.5C 455.5,392.167 455.167,392.5 454.5,392.5C 453.094,392.973 452.427,393.973 452.5,395.5C 452.262,397.404 451.262,398.738 449.5,399.5C 448.5,399.833 447.833,400.5 447.5,401.5C 444.774,401.264 442.441,402.097 440.5,404C 440.854,405.626 440.854,407.459 440.5,409.5C 439.075,410.922 438.075,412.589 437.5,414.5C 437.167,415.5 436.5,416.167 435.5,416.5C 432.097,418.9 429.43,421.9 427.5,425.5C 427.167,426.5 426.5,427.167 425.5,427.5C 422.911,428.419 420.911,430.086 419.5,432.5C 418.167,432.5 416.833,432.5 415.5,432.5C 415.344,436.135 414.178,436.468 412,433.5C 411.71,435.92 411.21,438.254 410.5,440.5C 406.803,442.065 403.137,442.899 399.5,443C 401.635,444.556 401.968,446.389 400.5,448.5C 399.421,450.543 397.754,451.876 395.5,452.5C 393.973,452.427 392.973,453.094 392.5,454.5C 392.027,455.906 391.027,456.573 389.5,456.5C 387.973,456.427 386.973,457.094 386.5,458.5C 384.973,458.427 383.973,459.094 383.5,460.5C 380.506,463 377.173,465 373.5,466.5C 371.5,466.5 369.5,466.5 367.5,466.5C 367.279,468.664 366.279,470.33 364.5,471.5C 362.62,471.229 361.287,471.896 360.5,473.5C 357.873,474.092 355.206,474.425 352.5,474.5C 352.5,475.5 352.5,476.5 352.5,477.5C 350.302,477.12 348.635,477.787 347.5,479.5C 345.62,479.229 344.287,479.896 343.5,481.5C 343.167,481.5 342.833,481.5 342.5,481.5C 338.8,481.921 335.133,482.588 331.5,483.5C 331.137,484.183 330.804,484.85 330.5,485.5C 327.843,485.935 325.509,486.935 323.5,488.5C 322.432,489.434 321.099,489.768 319.5,489.5C 317.473,489.338 315.473,489.505 313.5,490C 312.944,490.383 312.611,490.883 312.5,491.5C 304.825,494.169 296.825,495.836 288.5,496.5C 278.072,496.635 267.739,496.635 257.5,496.5C 255.058,496.286 253.392,497.286 252.5,499.5C 244.5,499.5 236.5,499.5 228.5,499.5C 228.5,498.833 228.167,498.5 227.5,498.5C 220.063,496.765 212.396,495.765 204.5,495.5C 204.167,495.5 203.833,495.5 203.5,495.5C 202.319,493.933 200.653,493.099 198.5,493C 195.854,492.503 193.187,492.336 190.5,492.5C 190.389,491.883 190.056,491.383 189.5,491C 186.173,490.39 182.839,489.89 179.5,489.5C 177.562,487.837 175.228,487.171 172.5,487.5C 172.167,487.5 171.833,487.5 171.5,487.5C 170.365,485.787 168.698,485.12 166.5,485.5C 160.972,481.169 154.638,478.502 147.5,477.5C 147.167,477.5 146.833,477.5 146.5,477.5C 146.5,476.5 146.5,475.5 146.5,474.5C 143.833,474.167 141.167,473.833 138.5,473.5C 136.851,471.825 135.518,469.825 134.5,467.5C 132.273,468.053 129.939,468.053 127.5,467.5C 127.631,466.761 127.464,466.094 127,465.5C 124.863,464.521 123.029,463.188 121.5,461.5C 119.604,460.534 117.604,460.201 115.5,460.5C 115.027,459.094 114.027,458.427 112.5,458.5C 112.027,457.094 111.027,456.427 109.5,456.5C 109.027,455.094 108.027,454.427 106.5,454.5C 105.738,452.738 104.404,451.738 102.5,451.5C 101.079,449.093 99.7461,446.593 98.5,444C 96.4817,443.495 94.4817,442.995 92.5,442.5C 91.3951,441.4 90.0618,440.733 88.5,440.5C 86.7607,437.757 84.4274,435.757 81.5,434.5C 79.4309,431.427 76.7642,429.094 73.5,427.5C 72.5,424.5 70.5,422.5 67.5,421.5C 66.9202,419.251 65.5869,417.585 63.5,416.5C 63.5123,413.858 62.179,412.525 59.5,412.5C 59.573,410.973 58.9063,409.973 57.5,409.5C 56.5,409.167 55.8333,408.5 55.5,407.5C 54.7834,404.677 53.7834,402.01 52.5,399.5C 51.5,399.5 50.5,399.5 49.5,399.5C 49.2624,397.596 48.2624,396.262 46.5,395.5C 45.9307,392.281 44.264,389.948 41.5,388.5C 41.7593,386.011 40.7593,384.344 38.5,383.5C 37.9247,380.046 36.258,377.379 33.5,375.5C 32.6618,375.158 32.3284,374.492 32.5,373.5C 32.573,371.973 31.9063,370.973 30.5,370.5C 30.9118,366.039 29.2452,362.705 25.5,360.5C 25.7709,358.62 25.1042,357.287 23.5,356.5C 23.2962,353.482 22.9629,350.482 22.5,347.5C 21.5,347.5 20.5,347.5 19.5,347.5C 19.1558,344.438 18.4891,341.438 17.5,338.5C 16.8165,338.137 16.1499,337.804 15.5,337.5C 14.4625,336.07 13.7959,334.403 13.5,332.5C 13.554,329.008 12.554,326.008 10.5,323.5C 9.56552,322.432 9.23219,321.099 9.5,319.5C 9.66212,317.473 9.49546,315.473 9,313.5C 8.61742,312.944 8.11742,312.611 7.5,312.5C 5.54782,306.751 4.21449,300.751 3.5,294.5C 3.25262,284.451 2.41929,274.451 1,264.5C 0.617425,263.944 0.117425,263.611 -0.5,263.5C -0.5,255.167 -0.5,246.833 -0.5,238.5C 1.75248,221.213 4.41914,203.879 7.5,186.5C 10.6159,178.39 13.2825,170.057 15.5,161.5C 15.5,161.167 15.5,160.833 15.5,160.5C 16.4959,160.586 17.3292,160.252 18,159.5C 18.8215,156.883 19.3215,154.216 19.5,151.5C 19.5,151.167 19.5,150.833 19.5,150.5C 20.5,150.5 21.5,150.5 22.5,150.5C 22.8333,147.833 23.1667,145.167 23.5,142.5C 24.5,142.5 25.5,142.5 26.5,142.5C 26.8333,139.833 27.1667,137.167 27.5,134.5C 28.3764,134.631 29.0431,134.298 29.5,133.5C 30.5134,130.812 31.5134,128.146 32.5,125.5C 33.3764,125.631 34.0431,125.298 34.5,124.5C 35.8588,121.486 37.1921,118.486 38.5,115.5C 39.9063,115.027 40.573,114.027 40.5,112.5C 41.9063,112.027 42.573,111.027 42.5,109.5C 43.9063,109.027 44.573,108.027 44.5,106.5C 46.2624,105.738 47.2624,104.404 47.5,102.5C 48.9063,102.027 49.573,101.027 49.5,99.5C 51.5869,98.4154 52.9202,96.7488 53.5,94.5C 55.5869,93.4154 56.9202,91.7488 57.5,89.5C 68.8648,77.1346 80.8648,65.4679 93.5,54.5C 97.0515,52.8892 100.051,50.5558 102.5,47.5C 105.37,46.5667 107.704,44.9 109.5,42.5C 112.198,42.1551 114.198,40.8218 115.5,38.5C 118.198,38.1551 120.198,36.8218 121.5,34.5C 123.181,32.9925 125.181,31.9925 127.5,31.5C 129.848,31.4077 131.514,30.4077 132.5,28.5C 135.313,28.9754 137.313,27.9754 138.5,25.5C 139.514,24.3263 140.847,23.6596 142.5,23.5C 146.165,23.4982 149.165,22.1648 151.5,19.5C 154.491,19.8337 156.824,18.8337 158.5,16.5C 163.091,15.3618 167.757,14.5285 172.5,14C 174.891,12.3968 177.224,10.8968 179.5,9.5C 182.152,9.59047 184.485,8.92381 186.5,7.5C 189.495,7.70621 192.162,7.03954 194.5,5.5C 197.589,4.21543 200.922,3.54877 204.5,3.5C 212.341,2.9754 220.174,2.30873 228,1.5C 230.929,1.47523 233.429,0.808559 235.5,-0.5 Z"/></g>
<g><path style="opacity:0.998" fill="#65090d" d="M 263.5,-0.5 C 266.167,-0.5 268.833,-0.5 271.5,-0.5C 274.167,0.166667 276.833,0.833333 279.5,1.5C 274.821,1.66582 270.155,1.49915 265.5,1C 264.584,0.721579 263.918,0.221579 263.5,-0.5 Z"/></g>
<g><path style="opacity:0.004" fill="#fe0000" d="M 291.5,0.5 C 292.833,1.16667 292.833,1.16667 291.5,0.5 Z"/></g>
<g><path style="opacity:0.004" fill="#fe0000" d="M 161.5,1.5 C 162.833,2.16667 162.833,2.16667 161.5,1.5 Z"/></g>
<g><path style="opacity:0.984" fill="#590606" d="M 227.5,-0.5 C 230.167,-0.5 232.833,-0.5 235.5,-0.5C 233.429,0.808559 230.929,1.47523 228,1.5C 220.174,2.30873 212.341,2.9754 204.5,3.5C 212.143,2.02124 219.81,0.687905 227.5,-0.5 Z"/></g>
<g><path style="opacity:0.004" fill="#fe0000" d="M 83.5,2.5 C 84.8333,3.16667 84.8333,3.16667 83.5,2.5 Z"/></g>
<g><path style="opacity:0.004" fill="#fe0000" d="M 393.5,4.5 C 394.833,5.16667 394.833,5.16667 393.5,4.5 Z"/></g>
<g><path style="opacity:1" fill="#6b0308" d="M 194.5,5.5 C 192.162,7.03954 189.495,7.70621 186.5,7.5C 188.905,6.2318 191.572,5.56513 194.5,5.5 Z"/></g>
<g><path style="opacity:0.992" fill="#6f070b" d="M 305.5,5.5 C 308.067,5.72148 310.401,6.38815 312.5,7.5C 310.473,7.66212 308.473,7.49546 306.5,7C 305.944,6.61742 305.611,6.11742 305.5,5.5 Z"/></g>
<g><path style="opacity:0.918" fill="#780205" d="M 186.5,7.5 C 184.485,8.92381 182.152,9.59047 179.5,9.5C 181.515,8.07619 183.848,7.40953 186.5,7.5 Z"/></g>
<g><path style="opacity:0.996" fill="#680206" d="M 312.5,7.5 C 315.067,7.72148 317.401,8.38815 319.5,9.5C 317.473,9.66212 315.473,9.49546 313.5,9C 312.944,8.61742 312.611,8.11742 312.5,7.5 Z"/></g>
<g><path style="opacity:0.686" fill="#83050a" d="M 321.5,9.5 C 324.397,10.129 327.064,11.129 329.5,12.5C 326.284,12.6545 323.617,11.6545 321.5,9.5 Z"/></g>
<g><path style="opacity:0.004" fill="#fe0000" d="M 34.5,11.5 C 35.8333,12.1667 35.8333,12.1667 34.5,11.5 Z"/></g>
<g><path style="opacity:1" fill="#360903" d="M 179.5,9.5 C 177.224,10.8968 174.891,12.3968 172.5,14C 167.757,14.5285 163.091,15.3618 158.5,16.5C 165.085,13.1937 172.085,10.8604 179.5,9.5 Z"/></g>
<g><path style="opacity:0.667" fill="#760409" d="M 329.5,12.5 C 331.786,12.595 333.786,13.2616 335.5,14.5C 333.102,14.7406 331.102,14.0739 329.5,12.5 Z"/></g>
<g><path style="opacity:1" fill="#510906" d="M 337.5,15.5 C 344.236,17.3727 350.57,20.0394 356.5,23.5C 350.32,21.9596 344.32,19.9596 338.5,17.5C 338.137,16.8165 337.804,16.1499 337.5,15.5 Z"/></g>
<g><path style="opacity:1" fill="#510503" d="M 158.5,16.5 C 156.824,18.8337 154.491,19.8337 151.5,19.5C 153.509,17.9348 155.843,16.9348 158.5,16.5 Z"/></g>
<g><path style="opacity:0.996" fill="#4c0605" d="M 151.5,19.5 C 149.165,22.1648 146.165,23.4982 142.5,23.5C 145.088,21.4082 148.088,20.0749 151.5,19.5 Z"/></g>
<g><path style="opacity:0.702" fill="#710306" d="M 356.5,23.5 C 358.153,23.6596 359.486,24.3263 360.5,25.5C 358.62,25.7709 357.287,25.1042 356.5,23.5 Z"/></g>
<g><path style="opacity:1" fill="#4e0603" d="M 138.5,25.5 C 137.313,27.9754 135.313,28.9754 132.5,28.5C 134.181,26.9925 136.181,25.9925 138.5,25.5 Z"/></g>
<g><path style="opacity:1" fill="#580a08" d="M 360.5,25.5 C 363.485,26.3257 366.151,27.659 368.5,29.5C 364.966,29.6395 362.299,28.3061 360.5,25.5 Z"/></g>
<g><path style="opacity:0.906" fill="#600505" d="M 132.5,28.5 C 131.514,30.4077 129.848,31.4077 127.5,31.5C 128.659,29.7497 130.326,28.7497 132.5,28.5 Z"/></g>
<g><path style="opacity:0.004" fill="#fe0000" d="M 476.5,32.5 C 477.833,33.1667 477.833,33.1667 476.5,32.5 Z"/></g>
<g><path style="opacity:0.871" fill="#710304" d="M 121.5,34.5 C 120.198,36.8218 118.198,38.1551 115.5,38.5C 117.147,36.6736 119.147,35.3403 121.5,34.5 Z"/></g>
<g><path style="opacity:1" fill="#590808" d="M 368.5,29.5 C 377.69,33.5889 386.023,38.9223 393.5,45.5C 387.838,43.2883 382.838,40.1216 378.5,36C 375.588,34.6274 372.754,33.1274 370,31.5C 369.667,31.8333 369.333,32.1667 369,32.5C 368.517,31.552 368.351,30.552 368.5,29.5 Z"/></g>
<g><path style="opacity:0.914" fill="#670104" d="M 115.5,38.5 C 114.198,40.8218 112.198,42.1551 109.5,42.5C 111.147,40.6736 113.147,39.3403 115.5,38.5 Z"/></g>
<g><path style="opacity:1" fill="#494c4e" d="M 277.5,45.5 C 264.803,45.246 252.137,45.5794 239.5,46.5C 239.918,45.7784 240.584,45.2784 241.5,45C 253.674,44.1737 265.674,44.3403 277.5,45.5 Z"/></g>
<g><path style="opacity:0.792" fill="#780207" d="M 109.5,42.5 C 107.704,44.9 105.37,46.5667 102.5,47.5C 104.296,45.1 106.63,43.4333 109.5,42.5 Z"/></g>
<g><path style="opacity:1" fill="#bcc0c3" d="M 277.5,45.5 C 282.694,45.7407 287.694,46.4074 292.5,47.5C 270.803,45.9724 249.136,46.3057 227.5,48.5C 231.21,46.8643 235.21,46.1977 239.5,46.5C 252.137,45.5794 264.803,45.246 277.5,45.5 Z"/></g>
<g><path style="opacity:0.129" fill="#7c0409" d="M 393.5,45.5 C 395.027,45.427 396.027,46.0937 396.5,47.5C 394.973,47.573 393.973,46.9063 393.5,45.5 Z"/></g>
<g><path style="opacity:1" fill="#fafbfa" d="M 292.5,47.5 C 295.455,48.1587 298.455,48.4921 301.5,48.5C 303.102,50.0739 305.102,50.7406 307.5,50.5C 307.5,51.1667 307.833,51.5 308.5,51.5C 310.515,52.9238 312.848,53.5905 315.5,53.5C 322.648,57.4592 329.148,62.4592 335,68.5C 336.705,70.5766 337.872,72.91 338.5,75.5C 340.597,82.1074 342.264,88.7741 343.5,95.5C 344.718,96.1614 346.051,96.8281 347.5,97.5C 356.478,98.4987 365.478,99.1654 374.5,99.5C 374.833,99.5 375.167,99.5 375.5,99.5C 377.395,101.241 379.728,102.241 382.5,102.5C 382.833,102.5 383.167,102.5 383.5,102.5C 386.997,104.902 390.997,106.568 395.5,107.5C 398.874,110.51 402.208,113.51 405.5,116.5C 405.343,117.873 405.51,119.207 406,120.5C 410.885,124.879 412.718,130.379 411.5,137C 411.142,141.91 410.476,146.743 409.5,151.5C 407.066,154.709 405.399,158.376 404.5,162.5C 401.194,166.473 397.527,170.14 393.5,173.5C 392.178,173.33 391.011,173.663 390,174.5C 389.345,176.628 388.511,178.628 387.5,180.5C 384.559,181.802 382.225,183.802 380.5,186.5C 378.174,187.145 376.507,188.478 375.5,190.5C 368.172,194.824 360.839,199.158 353.5,203.5C 351.748,203.418 350.748,204.251 350.5,206C 350.836,207.03 351.503,207.53 352.5,207.5C 353.167,207.5 353.833,207.5 354.5,207.5C 355.918,209.308 357.918,209.975 360.5,209.5C 368.52,213.295 376.52,217.295 384.5,221.5C 388.474,225.138 392.474,228.805 396.5,232.5C 397.167,233.5 397.833,234.5 398.5,235.5C 398.67,236.822 398.337,237.989 397.5,239C 399.333,240.167 401.167,241.333 403,242.5C 403.684,243.784 403.517,244.951 402.5,246C 403.449,246.617 404.282,246.451 405,245.5C 405.729,249.284 407.229,252.617 409.5,255.5C 410.768,257.905 411.435,260.572 411.5,263.5C 411.457,271.848 411.124,280.181 410.5,288.5C 410.5,288.833 410.5,289.167 410.5,289.5C 409.883,289.611 409.383,289.944 409,290.5C 408.605,293.207 408.105,295.873 407.5,298.5C 407.5,299.5 407.5,300.5 407.5,301.5C 405.643,303.282 404.643,305.615 404.5,308.5C 403.069,309.78 402.402,311.447 402.5,313.5C 400.12,315.582 398.454,318.249 397.5,321.5C 397.5,321.833 397.5,322.167 397.5,322.5C 395.518,324.502 393.852,326.835 392.5,329.5C 392.5,329.833 392.5,330.167 392.5,330.5C 390.14,331.865 388.473,333.865 387.5,336.5C 385.554,337.035 384.554,338.368 384.5,340.5C 380.955,342.23 378.288,344.896 376.5,348.5C 373.527,350.806 370.86,353.473 368.5,356.5C 364.834,358.504 361.834,361.171 359.5,364.5C 355.809,365.353 353.142,367.52 351.5,371C 345.058,374.302 339.058,378.135 333.5,382.5C 326.045,387.307 318.378,391.64 310.5,395.5C 298.367,400.952 286.034,405.952 273.5,410.5C 262.731,413.539 252.065,416.539 241.5,419.5C 235.755,419.603 230.422,420.936 225.5,423.5C 224.833,423.5 224.167,423.5 223.5,423.5C 215.293,424.752 207.293,426.419 199.5,428.5C 198.167,428.5 196.833,428.5 195.5,428.5C 191.534,429.162 187.534,429.495 183.5,429.5C 177.158,429.334 170.825,429.5 164.5,430C 163.142,430.934 161.808,431.768 160.5,432.5C 159.833,432.5 159.5,432.833 159.5,433.5C 146.885,435.013 134.218,435.68 121.5,435.5C 120.833,434.5 120.167,433.5 119.5,432.5C 119.01,428.513 119.676,424.846 121.5,421.5C 121.5,420.833 121.833,420.5 122.5,420.5C 124.544,419.492 126.544,418.492 128.5,417.5C 128.842,416.662 129.508,416.328 130.5,416.5C 137.543,414.589 144.543,412.922 151.5,411.5C 154.167,411.5 156.833,411.5 159.5,411.5C 166.026,411.303 172.359,410.636 178.5,409.5C 181.287,408.523 184.287,408.19 187.5,408.5C 191.841,408.342 195.841,407.342 199.5,405.5C 200.167,405.5 200.833,405.5 201.5,405.5C 204.553,405.889 207.22,405.223 209.5,403.5C 211.167,403.5 212.833,403.5 214.5,403.5C 220.557,403.265 226.224,401.932 231.5,399.5C 233.857,399.663 236.19,399.497 238.5,399C 241.731,398.139 244.731,396.972 247.5,395.5C 252.951,395.565 257.618,393.898 261.5,390.5C 262.167,390.5 262.833,390.5 263.5,390.5C 267.127,389.679 270.46,388.346 273.5,386.5C 281.523,384.881 289.19,382.381 296.5,379C 299.411,377.778 301.744,375.945 303.5,373.5C 303.842,372.662 304.508,372.328 305.5,372.5C 308.751,371.546 311.418,369.88 313.5,367.5C 319.98,365.007 325.646,361.341 330.5,356.5C 331.585,354.413 333.251,353.08 335.5,352.5C 339.1,350.57 342.1,347.903 344.5,344.5C 346.587,343.415 347.92,341.749 348.5,339.5C 348.833,338.5 349.5,337.833 350.5,337.5C 353.46,334.878 356.46,332.211 359.5,329.5C 360.421,327.223 361.087,324.89 361.5,322.5C 366.448,318.026 369.115,312.359 369.5,305.5C 369.5,305.167 369.5,304.833 369.5,304.5C 370.987,301.055 372.154,297.388 373,293.5C 373.824,284.657 373.657,275.99 372.5,267.5C 371.797,265.371 370.797,263.371 369.5,261.5C 369.5,261.167 369.5,260.833 369.5,260.5C 369.245,258.033 368.245,256.033 366.5,254.5C 363.858,250.852 361.191,247.185 358.5,243.5C 358.372,241.91 357.705,240.577 356.5,239.5C 352.651,237.235 348.651,235.569 344.5,234.5C 344.5,233.833 344.167,233.5 343.5,233.5C 341.967,231.755 339.967,230.755 337.5,230.5C 337.167,230.5 336.833,230.5 336.5,230.5C 333.916,228.528 330.916,227.528 327.5,227.5C 323.455,225.823 319.122,225.156 314.5,225.5C 314.167,225.5 313.833,225.5 313.5,225.5C 313.082,224.778 312.416,224.278 311.5,224C 308.854,223.503 306.187,223.336 303.5,223.5C 299.413,223.706 295.913,222.373 293,219.5C 292.786,214.179 295.286,210.513 300.5,208.5C 305.129,207.519 309.129,205.519 312.5,202.5C 321.177,197.495 329.844,192.495 338.5,187.5C 341.353,186.811 343.853,185.478 346,183.5C 346.873,183.735 347.707,184.069 348.5,184.5C 349.206,182.296 350.206,180.296 351.5,178.5C 357.113,175.887 361.446,171.887 364.5,166.5C 368.973,164.686 371.64,161.353 372.5,156.5C 373.758,154.313 374.758,151.98 375.5,149.5C 376.638,146.696 376.805,143.696 376,140.5C 375.617,139.944 375.117,139.611 374.5,139.5C 374.649,138.448 374.483,137.448 374,136.5C 369.373,132.123 364.539,128.123 359.5,124.5C 355.848,120.404 351.182,118.404 345.5,118.5C 344.903,117.861 344.07,117.528 343,117.5C 341.624,117.684 340.791,118.351 340.5,119.5C 335.648,127.387 330.981,135.387 326.5,143.5C 324.155,145.514 322.155,147.847 320.5,150.5C 319.147,151.526 318.147,152.859 317.5,154.5C 315.086,155.911 313.419,157.911 312.5,160.5C 310.167,162.167 308.167,164.167 306.5,166.5C 302.53,168.14 299.53,170.807 297.5,174.5C 294.911,175.419 292.911,177.086 291.5,179.5C 287.357,181.228 284.024,183.894 281.5,187.5C 280.564,188.974 279.23,189.974 277.5,190.5C 273.391,191.874 270.057,194.208 267.5,197.5C 261.707,200.901 256.041,204.568 250.5,208.5C 246.795,210.695 242.962,212.695 239,214.5C 237.251,215.41 236.084,216.743 235.5,218.5C 233.801,218.34 232.134,218.506 230.5,219C 228.551,220.835 226.217,222.001 223.5,222.5C 220.512,225.69 221.179,227.69 225.5,228.5C 230.688,230.129 236.021,231.129 241.5,231.5C 243.102,233.074 245.102,233.741 247.5,233.5C 257.889,235.696 267.889,239.029 277.5,243.5C 279.033,245.245 281.033,246.245 283.5,246.5C 285.566,248.199 287.9,249.532 290.5,250.5C 296.421,255.079 302.087,260.079 307.5,265.5C 310.255,268.013 312.255,271.013 313.5,274.5C 313.62,277.578 314.62,280.245 316.5,282.5C 316.451,289.849 316.118,297.183 315.5,304.5C 313.928,307.318 312.594,310.318 311.5,313.5C 308.824,314.961 307.324,317.294 307,320.5C 303.64,322.233 301.473,324.9 300.5,328.5C 297.865,329.473 295.865,331.14 294.5,333.5C 287.323,339.584 279.656,344.918 271.5,349.5C 267.748,349.94 264.748,351.607 262.5,354.5C 256.021,356.579 249.687,358.912 243.5,361.5C 240.615,361.643 238.282,362.643 236.5,364.5C 236.167,364.5 235.833,364.5 235.5,364.5C 233.139,364.674 230.806,365.007 228.5,365.5C 211.178,367.894 193.845,370.728 176.5,374C 175.944,374.383 175.611,374.883 175.5,375.5C 174.833,375.5 174.167,375.5 173.5,375.5C 168.878,375.156 164.545,375.823 160.5,377.5C 156.131,377.467 151.798,377.8 147.5,378.5C 143.486,378.334 139.486,378.501 135.5,379C 134.584,379.278 133.918,379.778 133.5,380.5C 128.883,381.487 124.216,382.154 119.5,382.5C 109.135,383.646 98.802,383.646 88.5,382.5C 87.9707,380.217 87.6374,377.883 87.5,375.5C 88.0048,369.982 89.0048,364.648 90.5,359.5C 91.4345,358.432 91.7678,357.099 91.5,355.5C 93.2451,353.967 94.2451,351.967 94.5,349.5C 94.5,349.167 94.5,348.833 94.5,348.5C 96.9739,344.964 98.6406,340.964 99.5,336.5C 99.5,336.167 99.5,335.833 99.5,335.5C 101.379,334.105 102.379,332.105 102.5,329.5C 102.5,329.167 102.5,328.833 102.5,328.5C 107.374,320.897 110.707,312.564 112.5,303.5C 112.5,303.167 112.5,302.833 112.5,302.5C 113.885,301.426 115.051,300.093 116,298.5C 116.61,295.173 117.11,291.839 117.5,288.5C 117.5,288.167 117.5,287.833 117.5,287.5C 119.245,285.967 120.245,283.967 120.5,281.5C 120.5,281.167 120.5,280.833 120.5,280.5C 122.241,278.605 123.241,276.272 123.5,273.5C 126.508,269.796 128.175,265.463 128.5,260.5C 131.368,254.364 133.701,248.031 135.5,241.5C 137.245,239.967 138.245,237.967 138.5,235.5C 141.892,230.028 144.225,224.028 145.5,217.5C 148.74,210.357 151.407,203.024 153.5,195.5C 154.885,194.426 156.051,193.093 157,191.5C 159.055,186.709 160.555,181.709 161.5,176.5C 161.5,175.833 161.5,175.167 161.5,174.5C 163.296,171.593 165.13,168.593 167,165.5C 167.9,161.829 168.734,158.163 169.5,154.5C 169.5,153.5 169.5,152.5 169.5,151.5C 172.883,148.711 174.55,145.045 174.5,140.5C 174.38,139.414 173.713,138.747 172.5,138.5C 169.056,139.059 166.056,140.393 163.5,142.5C 160.509,142.166 158.176,143.166 156.5,145.5C 156.167,145.5 155.833,145.5 155.5,145.5C 151.608,147.571 147.608,149.237 143.5,150.5C 141.033,150.755 139.033,151.755 137.5,153.5C 130.895,156.387 124.228,159.387 117.5,162.5C 111.902,164.033 106.569,163.7 101.5,161.5C 100.738,156.607 101.738,152.274 104.5,148.5C 106.833,146.833 108.833,144.833 110.5,142.5C 111.93,141.463 113.597,140.796 115.5,140.5C 121.662,137.345 127.662,134.012 133.5,130.5C 134.873,130.657 136.207,130.49 137.5,130C 139.437,128.538 141.437,127.372 143.5,126.5C 148.976,125.555 153.976,123.555 158.5,120.5C 160.579,120.029 162.579,119.363 164.5,118.5C 166.801,117.94 169.134,117.44 171.5,117C 172.056,116.617 172.389,116.117 172.5,115.5C 173.833,115.5 175.167,115.5 176.5,115.5C 180.468,114.606 184.468,113.773 188.5,113C 189.056,112.617 189.389,112.117 189.5,111.5C 191.905,110.232 194.572,109.565 197.5,109.5C 201.841,109.342 205.841,108.342 209.5,106.5C 222.545,105.062 235.545,103.228 248.5,101C 249.056,100.617 249.389,100.117 249.5,99.5C 254.414,99.6382 259.081,98.9715 263.5,97.5C 266.167,97.5 268.833,97.5 271.5,97.5C 280.126,96.5888 288.792,96.2555 297.5,96.5C 300.167,96.5 302.833,96.5 305.5,96.5C 305.324,93.2727 304.657,90.2727 303.5,87.5C 300.919,81.917 296.919,77.5836 291.5,74.5C 288.618,70.5292 284.618,68.8625 279.5,69.5C 278.833,69.5 278.167,69.5 277.5,69.5C 269.722,67.999 261.722,67.3324 253.5,67.5C 248.167,67.6667 242.833,67.8333 237.5,68C 236.944,68.3826 236.611,68.8826 236.5,69.5C 231.156,69.334 225.823,69.5006 220.5,70C 219.944,70.3826 219.611,70.8826 219.5,71.5C 218.5,71.5 217.5,71.5 216.5,71.5C 211.878,71.1561 207.545,71.8227 203.5,73.5C 198.851,74.065 194.184,74.565 189.5,75C 182.37,76.2708 175.703,78.4375 169.5,81.5C 165.243,81.7481 161.243,82.7481 157.5,84.5C 152.241,84.9836 147.241,84.3169 142.5,82.5C 142.573,80.9731 141.906,79.9731 140.5,79.5C 140.312,76.0649 141.312,73.0649 143.5,70.5C 146.438,69.3716 149.438,68.2049 152.5,67C 154.319,66.2597 155.652,65.0931 156.5,63.5C 159.228,63.8294 161.562,63.1628 163.5,61.5C 163.833,61.5 164.167,61.5 164.5,61.5C 170.759,60.2734 177.093,59.44 183.5,59C 183.167,58.6667 182.833,58.3333 182.5,58C 184.744,57.9504 186.411,57.1171 187.5,55.5C 190.553,55.8893 193.22,55.2227 195.5,53.5C 195.833,53.5 196.167,53.5 196.5,53.5C 199.495,53.7062 202.162,53.0395 204.5,51.5C 205.5,51.5 206.5,51.5 207.5,51.5C 211.79,51.1455 215.79,50.1455 219.5,48.5C 222.167,48.5 224.833,48.5 227.5,48.5C 249.136,46.3057 270.803,45.9724 292.5,47.5 Z"/></g>
<g><path style="opacity:0.086" fill="#8c030d" d="M 396.5,47.5 C 398.027,47.427 399.027,48.0937 399.5,49.5C 397.973,49.573 396.973,48.9063 396.5,47.5 Z"/></g>
<g><path style="opacity:1" fill="#595d60" d="M 219.5,48.5 C 215.79,50.1455 211.79,51.1455 207.5,51.5C 207.611,50.8826 207.944,50.3826 208.5,50C 212.17,49.4518 215.837,48.9518 219.5,48.5 Z"/></g>
<g><path style="opacity:1" fill="#454e50" d="M 301.5,48.5 C 303.898,48.2594 305.898,48.9261 307.5,50.5C 305.102,50.7406 303.102,50.0739 301.5,48.5 Z"/></g>
<g><path style="opacity:0.843" fill="#600407" d="M 102.5,47.5 C 100.051,50.5558 97.0515,52.8892 93.5,54.5C 95.9485,51.4442 98.9485,49.1108 102.5,47.5 Z"/></g>
<g><path style="opacity:1" fill="#74787d" d="M 204.5,51.5 C 202.162,53.0395 199.495,53.7062 196.5,53.5C 198.905,52.2318 201.572,51.5651 204.5,51.5 Z"/></g>
<g><path style="opacity:1" fill="#494e52" d="M 308.5,51.5 C 310.527,51.3379 312.527,51.5045 314.5,52C 315.056,52.3826 315.389,52.8826 315.5,53.5C 312.848,53.5905 310.515,52.9238 308.5,51.5 Z"/></g>
<g><path style="opacity:0.004" fill="#fe0000" d="M 451.5,52.5 C 452.833,53.1667 452.833,53.1667 451.5,52.5 Z"/></g>
<g><path style="opacity:1" fill="#717478" d="M 195.5,53.5 C 193.22,55.2227 190.553,55.8893 187.5,55.5C 186.167,55.8333 184.833,56.1667 183.5,56.5C 187.017,54.5321 191.017,53.5321 195.5,53.5 Z"/></g>
<g><path style="opacity:1" fill="#490907" d="M 399.5,49.5 C 403.146,51.8171 406.48,54.4838 409.5,57.5C 406.023,56.6237 403.023,54.957 400.5,52.5C 399.873,51.5832 399.539,50.5832 399.5,49.5 Z"/></g>
<g><path style="opacity:1" fill="#696f71" d="M 181.5,56.5 C 179.22,58.2227 176.553,58.8893 173.5,58.5C 175.905,57.2318 178.572,56.5651 181.5,56.5 Z"/></g>
<g><path style="opacity:1" fill="#caced0" d="M 187.5,55.5 C 186.411,57.1171 184.744,57.9504 182.5,58C 182.833,58.3333 183.167,58.6667 183.5,59C 177.093,59.44 170.759,60.2734 164.5,61.5C 167.008,59.446 170.008,58.446 173.5,58.5C 176.553,58.8893 179.22,58.2227 181.5,56.5C 182.167,56.5 182.833,56.5 183.5,56.5C 184.833,56.1667 186.167,55.8333 187.5,55.5 Z"/></g>
<g><path style="opacity:0.741" fill="#81060b" d="M 409.5,57.5 C 411.23,58.0256 412.564,59.0256 413.5,60.5C 411.368,60.4456 410.035,59.4456 409.5,57.5 Z"/></g>
<g><path style="opacity:1" fill="#929396" d="M 163.5,61.5 C 161.562,63.1628 159.228,63.8294 156.5,63.5C 158.515,62.0762 160.848,61.4095 163.5,61.5 Z"/></g>
<g><path style="opacity:1" fill="#440908" d="M 413.5,60.5 C 415.167,61.5 416.5,62.8333 417.5,64.5C 414.858,64.5123 413.525,63.179 413.5,60.5 Z"/></g>
<g><path style="opacity:0.004" fill="#fe0000" d="M 29.5,64.5 C 30.8333,65.1667 30.8333,65.1667 29.5,64.5 Z"/></g>
<g><path style="opacity:0.004" fill="#fe0000" d="M 60.5,65.5 C 61.8333,66.1667 61.8333,66.1667 60.5,65.5 Z"/></g>
<g><path style="opacity:1" fill="#adb4b7" d="M 156.5,63.5 C 155.652,65.0931 154.319,66.2597 152.5,67C 149.438,68.2049 146.438,69.3716 143.5,70.5C 147.482,67.6091 151.815,65.2757 156.5,63.5 Z"/></g>
<g><path style="opacity:1" fill="#c5cace" d="M 277.5,69.5 C 264.135,68.3254 250.802,68.3254 237.5,69.5C 237.167,69.5 236.833,69.5 236.5,69.5C 236.611,68.8826 236.944,68.3826 237.5,68C 242.833,67.8333 248.167,67.6667 253.5,67.5C 261.722,67.3324 269.722,67.999 277.5,69.5 Z"/></g>
<g><path style="opacity:0.671" fill="#8c0709" d="M 420.5,66.5 C 423.167,68.5 425.5,70.8333 427.5,73.5C 424.167,72.1667 421.833,69.8333 420.5,66.5 Z"/></g>
<g><path style="opacity:1" fill="#7e8387" d="M 236.5,69.5 C 236.833,69.5 237.167,69.5 237.5,69.5C 237.5,69.8333 237.5,70.1667 237.5,70.5C 231.464,70.3599 225.464,70.6932 219.5,71.5C 219.611,70.8826 219.944,70.3826 220.5,70C 225.823,69.5006 231.156,69.334 236.5,69.5 Z"/></g>
<g><path style="opacity:1" fill="#42464a" d="M 277.5,69.5 C 278.167,69.5 278.833,69.5 279.5,69.5C 279.5,69.8333 279.5,70.1667 279.5,70.5C 265.5,70.5 251.5,70.5 237.5,70.5C 237.5,70.1667 237.5,69.8333 237.5,69.5C 250.802,68.3254 264.135,68.3254 277.5,69.5 Z"/></g>
<g><path style="opacity:1" fill="#b8babc" d="M 279.5,70.5 C 279.5,70.1667 279.5,69.8333 279.5,69.5C 284.618,68.8625 288.618,70.5292 291.5,74.5C 287.835,72.2354 283.835,70.9021 279.5,70.5 Z"/></g>
<g><path style="opacity:1" fill="#5b6164" d="M 216.5,71.5 C 212.455,73.1773 208.122,73.8439 203.5,73.5C 207.545,71.8227 211.878,71.1561 216.5,71.5 Z"/></g>
<g><path style="opacity:0.816" fill="#8f0409" d="M 427.5,73.5 C 430.243,75.2393 432.243,77.5726 433.5,80.5C 430.757,78.7607 428.757,76.4274 427.5,73.5 Z"/></g>
<g><path style="opacity:1" fill="#565d61" d="M 143.5,70.5 C 141.312,73.0649 140.312,76.0649 140.5,79.5C 139.203,77.3066 139.203,74.9732 140.5,72.5C 141.265,71.3881 142.265,70.7214 143.5,70.5 Z"/></g>
<g><path style="opacity:0.788" fill="#700309" d="M 93.5,54.5 C 80.8648,65.4679 68.8648,77.1346 57.5,89.5C 67.541,75.7919 79.541,64.1253 93.5,54.5 Z"/></g>
<g><path style="opacity:1" fill="#51575a" d="M 203.5,73.5 C 192.386,76.4431 181.052,79.1098 169.5,81.5C 175.703,78.4375 182.37,76.2708 189.5,75C 194.184,74.565 198.851,74.065 203.5,73.5 Z"/></g>
<g><path style="opacity:1" fill="#a0a3a7" d="M 338.5,75.5 C 342.638,81.3857 344.305,88.0523 343.5,95.5C 342.264,88.7741 340.597,82.1074 338.5,75.5 Z"/></g>
<g><path style="opacity:1" fill="#460905" d="M 433.5,80.5 C 436.573,82.5691 438.906,85.2358 440.5,88.5C 437.084,86.7523 434.75,84.0856 433.5,80.5 Z"/></g>
<g><path style="opacity:1" fill="#63676b" d="M 142.5,82.5 C 147.241,84.3169 152.241,84.9836 157.5,84.5C 153.354,85.647 149.02,85.8136 144.5,85C 143.619,84.2917 142.953,83.4584 142.5,82.5 Z"/></g>
<g><path style="opacity:0.788" fill="#7a0104" d="M 57.5,89.5 C 56.9202,91.7488 55.5869,93.4154 53.5,94.5C 54.0798,92.2512 55.4131,90.5846 57.5,89.5 Z"/></g>
<g><path style="opacity:0.788" fill="#750509" d="M 440.5,88.5 C 442.914,89.9108 444.581,91.9108 445.5,94.5C 443.086,93.0892 441.419,91.0892 440.5,88.5 Z"/></g>
<g><path style="opacity:1" fill="#6f7073" d="M 297.5,95.5 C 297.5,95.8333 297.5,96.1667 297.5,96.5C 288.792,96.2555 280.126,96.5888 271.5,97.5C 271.918,96.7784 272.584,96.2784 273.5,96C 281.493,95.5003 289.493,95.3336 297.5,95.5 Z"/></g>
<g><path style="opacity:1" fill="#bababa" d="M 303.5,87.5 C 304.657,90.2727 305.324,93.2727 305.5,96.5C 302.833,96.5 300.167,96.5 297.5,96.5C 297.5,96.1667 297.5,95.8333 297.5,95.5C 299.262,95.6427 300.929,95.3094 302.5,94.5C 303.474,92.2573 303.808,89.924 303.5,87.5 Z"/></g>
<g><path style="opacity:0.737" fill="#7f0308" d="M 53.5,94.5 C 52.9202,96.7488 51.5869,98.4154 49.5,99.5C 50.0798,97.2512 51.4131,95.5846 53.5,94.5 Z"/></g>
<g><path style="opacity:1" fill="#9c9fa3" d="M 343.5,95.5 C 354.007,96.5638 364.341,97.8971 374.5,99.5C 365.478,99.1654 356.478,98.4987 347.5,97.5C 346.051,96.8281 344.718,96.1614 343.5,95.5 Z"/></g>
<g><path style="opacity:1" fill="#666a6a" d="M 263.5,97.5 C 259.081,98.9715 254.414,99.6382 249.5,99.5C 253.9,97.8958 258.566,97.2291 263.5,97.5 Z"/></g>
<g><path style="opacity:1" fill="#400804" d="M 445.5,94.5 C 447.984,96.8003 449.984,99.4669 451.5,102.5C 447.62,101.281 445.62,98.6147 445.5,94.5 Z"/></g>
<g><path style="opacity:1" fill="#a5a9ab" d="M 249.5,99.5 C 249.389,100.117 249.056,100.617 248.5,101C 235.545,103.228 222.545,105.062 209.5,106.5C 211.834,105.876 214.167,105.043 216.5,104C 227.602,102.892 238.602,101.392 249.5,99.5 Z"/></g>
<g><path style="opacity:0.765" fill="#6a0209" d="M 49.5,99.5 C 49.573,101.027 48.9063,102.027 47.5,102.5C 47.427,100.973 48.0937,99.9731 49.5,99.5 Z"/></g>
<g><path style="opacity:1" fill="#696d6f" d="M 375.5,99.5 C 378.272,99.7587 380.605,100.759 382.5,102.5C 379.728,102.241 377.395,101.241 375.5,99.5 Z"/></g>
<g><path style="opacity:0.988" fill="#690108" d="M 47.5,102.5 C 47.2624,104.404 46.2624,105.738 44.5,106.5C 44.7376,104.596 45.7376,103.262 47.5,102.5 Z"/></g>
<g><path style="opacity:1" fill="#6a6e6f" d="M 383.5,102.5 C 387.964,103.359 391.964,105.026 395.5,107.5C 390.997,106.568 386.997,104.902 383.5,102.5 Z"/></g>
<g><path style="opacity:0.769" fill="#660306" d="M 44.5,106.5 C 44.573,108.027 43.9063,109.027 42.5,109.5C 42.427,107.973 43.0937,106.973 44.5,106.5 Z"/></g>
<g><path style="opacity:1" fill="#a4a8ab" d="M 209.5,106.5 C 205.841,108.342 201.841,109.342 197.5,109.5C 201.159,107.658 205.159,106.658 209.5,106.5 Z"/></g>
<g><path style="opacity:0.796" fill="#610205" d="M 42.5,109.5 C 42.573,111.027 41.9063,112.027 40.5,112.5C 40.427,110.973 41.0937,109.973 42.5,109.5 Z"/></g>
<g><path style="opacity:0.784" fill="#6e0106" d="M 456.5,109.5 C 457.906,109.973 458.573,110.973 458.5,112.5C 457.094,112.027 456.427,111.027 456.5,109.5 Z"/></g>
<g><path style="opacity:1" fill="#b0b2b5" d="M 189.5,111.5 C 189.389,112.117 189.056,112.617 188.5,113C 184.468,113.773 180.468,114.606 176.5,115.5C 177.347,114.034 178.68,113.2 180.5,113C 183.544,112.637 186.544,112.137 189.5,111.5 Z"/></g>
<g><path style="opacity:0.737" fill="#6a0206" d="M 40.5,112.5 C 40.573,114.027 39.9063,115.027 38.5,115.5C 38.427,113.973 39.0937,112.973 40.5,112.5 Z"/></g>
<g><path style="opacity:0.675" fill="#770309" d="M 458.5,112.5 C 459.906,112.973 460.573,113.973 460.5,115.5C 459.094,115.027 458.427,114.027 458.5,112.5 Z"/></g>
<g><path style="opacity:1" fill="#555759" d="M 172.5,115.5 C 172.389,116.117 172.056,116.617 171.5,117C 169.134,117.44 166.801,117.94 164.5,118.5C 164.611,117.883 164.944,117.383 165.5,117C 167.866,116.56 170.199,116.06 172.5,115.5 Z"/></g>
<g><path style="opacity:1" fill="#86898d" d="M 276.5,117.5 C 285.652,116.506 294.985,116.173 304.5,116.5C 304.741,118.898 304.074,120.898 302.5,122.5C 302.5,120.833 302.5,119.167 302.5,117.5C 293.833,117.5 285.167,117.5 276.5,117.5 Z"/></g>
<g><path style="opacity:0.604" fill="#78030a" d="M 460.5,115.5 C 461.906,115.973 462.573,116.973 462.5,118.5C 461.094,118.027 460.427,117.027 460.5,115.5 Z"/></g>
<g><path style="opacity:1" fill="#585c5d" d="M 275.5,117.5 C 266.372,119.088 257.038,120.088 247.5,120.5C 247.918,119.778 248.584,119.278 249.5,119C 258.135,117.919 266.801,117.419 275.5,117.5 Z"/></g>
<g><path style="opacity:1" fill="#030303" d="M 275.5,117.5 C 275.833,117.5 276.167,117.5 276.5,117.5C 285.167,117.5 293.833,117.5 302.5,117.5C 302.5,119.167 302.5,120.833 302.5,122.5C 301.087,125.661 299.42,128.661 297.5,131.5C 294.736,132.948 293.069,135.281 292.5,138.5C 290.469,139.539 289.136,141.205 288.5,143.5C 286.016,145.8 284.016,148.467 282.5,151.5C 280.833,152.5 279.5,153.833 278.5,155.5C 273.833,159.5 269.5,163.833 265.5,168.5C 262.847,170.155 260.514,172.155 258.5,174.5C 255.865,175.473 253.865,177.14 252.5,179.5C 250.326,179.75 248.659,180.75 247.5,182.5C 244.865,183.473 242.865,185.14 241.5,187.5C 238.296,188.383 235.629,190.05 233.5,192.5C 232.564,193.974 231.23,194.974 229.5,195.5C 225.529,198.283 221.195,200.45 216.5,202C 213.98,203.697 211.647,205.53 209.5,207.5C 204.611,208.943 199.945,210.943 195.5,213.5C 191.623,214.515 187.79,215.849 184,217.5C 183.366,214.445 183.532,211.445 184.5,208.5C 184.468,205.924 185.135,203.591 186.5,201.5C 189.836,198.416 191.502,194.416 191.5,189.5C 192.884,185.664 193.884,181.664 194.5,177.5C 195.906,177.027 196.573,176.027 196.5,174.5C 198.241,172.605 199.241,170.272 199.5,167.5C 201.097,165.152 202.097,162.486 202.5,159.5C 202.5,159.167 202.5,158.833 202.5,158.5C 203.946,155.746 204.946,152.746 205.5,149.5C 207.395,144.318 209.229,138.984 211,133.5C 212.276,130.401 214.11,127.734 216.5,125.5C 219.655,125.01 222.655,124.344 225.5,123.5C 226.5,123.5 227.5,123.5 228.5,123.5C 233.997,122.698 239.33,121.698 244.5,120.5C 245.5,120.5 246.5,120.5 247.5,120.5C 257.038,120.088 266.372,119.088 275.5,117.5 Z"/></g>
<g><path style="opacity:1" fill="#4e4f51" d="M 345.5,118.5 C 345.5,118.833 345.5,119.167 345.5,119.5C 343.833,119.5 342.167,119.5 340.5,119.5C 340.791,118.351 341.624,117.684 343,117.5C 344.07,117.528 344.903,117.861 345.5,118.5 Z"/></g>
<g><path style="opacity:1" fill="#a3a4a8" d="M 345.5,119.5 C 345.5,119.167 345.5,118.833 345.5,118.5C 351.182,118.404 355.848,120.404 359.5,124.5C 355.059,122.33 350.393,120.663 345.5,119.5 Z"/></g>
<g><path style="opacity:0.471" fill="#820105" d="M 462.5,118.5 C 463.906,118.973 464.573,119.973 464.5,121.5C 463.094,121.027 462.427,120.027 462.5,118.5 Z"/></g>
<g><path style="opacity:1" fill="#8c9194" d="M 244.5,120.5 C 239.33,121.698 233.997,122.698 228.5,123.5C 228.611,122.883 228.944,122.383 229.5,122C 234.464,121.088 239.464,120.588 244.5,120.5 Z"/></g>
<g><path style="opacity:1" fill="#a8abae" d="M 158.5,120.5 C 153.976,123.555 148.976,125.555 143.5,126.5C 146.993,124.523 150.659,122.69 154.5,121C 155.793,120.51 157.127,120.343 158.5,120.5 Z"/></g>
<g><path style="opacity:1" fill="#8d8f92" d="M 225.5,123.5 C 222.655,124.344 219.655,125.01 216.5,125.5C 218.988,123.612 221.988,122.945 225.5,123.5 Z"/></g>
<g><path style="opacity:1" fill="#540705" d="M 38.5,115.5 C 37.1921,118.486 35.8588,121.486 34.5,124.5C 34.0431,125.298 33.3764,125.631 32.5,125.5C 33.4977,121.495 35.4977,118.161 38.5,115.5 Z"/></g>
<g><path style="opacity:0.004" fill="#fe0000" d="M 470.5,126.5 C 471.833,127.167 471.833,127.167 470.5,126.5 Z"/></g>
<g><path style="opacity:1" fill="#989b9d" d="M 143.5,126.5 C 141.437,127.372 139.437,128.538 137.5,130C 136.207,130.49 134.873,130.657 133.5,130.5C 136.369,128.156 139.702,126.823 143.5,126.5 Z"/></g>
<g><path style="opacity:1" fill="#510906" d="M 32.5,125.5 C 31.5134,128.146 30.5134,130.812 29.5,133.5C 29.0431,134.298 28.3764,134.631 27.5,134.5C 28.4097,131.008 30.0764,128.008 32.5,125.5 Z"/></g>
<g><path style="opacity:1" fill="#360a02" d="M 466.5,125.5 C 469.593,129.347 471.926,133.68 473.5,138.5C 469.118,135.415 466.785,131.081 466.5,125.5 Z"/></g>
<g><path style="opacity:1" fill="#7b8081" d="M 297.5,131.5 C 296.189,134.135 294.522,136.469 292.5,138.5C 293.069,135.281 294.736,132.948 297.5,131.5 Z"/></g>
<g><path style="opacity:1" fill="#929599" d="M 133.5,130.5 C 127.662,134.012 121.662,137.345 115.5,140.5C 120.493,135.663 126.493,132.33 133.5,130.5 Z"/></g>
<g><path style="opacity:1" fill="#ced0d1" d="M 405.5,116.5 C 409.597,120.269 411.93,124.936 412.5,130.5C 413.69,135.477 413.69,140.477 412.5,145.5C 411.28,147.282 410.614,149.282 410.5,151.5C 410.167,151.5 409.833,151.5 409.5,151.5C 410.476,146.743 411.142,141.91 411.5,137C 412.718,130.379 410.885,124.879 406,120.5C 405.51,119.207 405.343,117.873 405.5,116.5 Z"/></g>
<g><path style="opacity:1" fill="#350a01" d="M 27.5,134.5 C 27.1667,137.167 26.8333,139.833 26.5,142.5C 25.5,142.5 24.5,142.5 23.5,142.5C 24.3257,139.515 25.659,136.849 27.5,134.5 Z"/></g>
<g><path style="opacity:1" fill="#818689" d="M 292.5,138.5 C 291.876,140.754 290.543,142.421 288.5,143.5C 289.136,141.205 290.469,139.539 292.5,138.5 Z"/></g>
<g><path style="opacity:1" fill="#72787c" d="M 163.5,142.5 C 161.491,144.065 159.157,145.065 156.5,145.5C 158.176,143.166 160.509,142.166 163.5,142.5 Z"/></g>
<g><path style="opacity:1" fill="#818687" d="M 288.5,143.5 C 287.471,146.891 285.471,149.557 282.5,151.5C 284.016,148.467 286.016,145.8 288.5,143.5 Z"/></g>
<g><path style="opacity:1" fill="#36383a" d="M 412.5,130.5 C 413.117,130.611 413.617,130.944 414,131.5C 414.167,133.833 414.333,136.167 414.5,138.5C 414.471,141.269 413.805,143.603 412.5,145.5C 413.69,140.477 413.69,135.477 412.5,130.5 Z"/></g>
<g><path style="opacity:1" fill="#535456" d="M 374.5,139.5 C 375.117,139.611 375.617,139.944 376,140.5C 376.805,143.696 376.638,146.696 375.5,149.5C 375.658,146.098 375.324,142.764 374.5,139.5 Z"/></g>
<g><path style="opacity:1" fill="#350a03" d="M 473.5,138.5 C 475.341,140.849 476.674,143.515 477.5,146.5C 476.5,146.5 475.5,146.5 474.5,146.5C 474.167,143.833 473.833,141.167 473.5,138.5 Z"/></g>
<g><path style="opacity:1" fill="#727779" d="M 110.5,142.5 C 108.833,144.833 106.833,146.833 104.5,148.5C 105.5,145.5 107.5,143.5 110.5,142.5 Z"/></g>
<g><path style="opacity:1" fill="#400a04" d="M 23.5,142.5 C 23.1667,145.167 22.8333,147.833 22.5,150.5C 21.5,150.5 20.5,150.5 19.5,150.5C 20.3257,147.515 21.659,144.849 23.5,142.5 Z"/></g>
<g><path style="opacity:1" fill="#383c3e" d="M 155.5,145.5 C 154.064,147.083 152.398,148.583 150.5,150C 148.19,150.497 145.857,150.663 143.5,150.5C 147.608,149.237 151.608,147.571 155.5,145.5 Z"/></g>
<g><path style="opacity:1" fill="#404445" d="M 326.5,143.5 C 325.067,145.558 324.4,147.892 324.5,150.5C 323.167,150.5 321.833,150.5 320.5,150.5C 322.155,147.847 324.155,145.514 326.5,143.5 Z"/></g>
<g><path style="opacity:1" fill="#393a3f" d="M 174.5,140.5 C 174.55,145.045 172.883,148.711 169.5,151.5C 170.817,147.495 172.484,143.828 174.5,140.5 Z"/></g>
<g><path style="opacity:1" fill="#5e6668" d="M 143.5,150.5 C 141.967,152.245 139.967,153.245 137.5,153.5C 139.033,151.755 141.033,150.755 143.5,150.5 Z"/></g>
<g><path style="opacity:1" fill="#6b6f70" d="M 409.5,151.5 C 409.833,151.5 410.167,151.5 410.5,151.5C 408.736,155.366 406.736,159.033 404.5,162.5C 405.399,158.376 407.066,154.709 409.5,151.5 Z"/></g>
<g><path style="opacity:1" fill="#4b0905" d="M 477.5,146.5 C 479.679,150.203 481.345,154.203 482.5,158.5C 478.928,155.407 477.261,151.407 477.5,146.5 Z"/></g>
<g><path style="opacity:1" fill="#98999a" d="M 205.5,149.5 C 204.946,152.746 203.946,155.746 202.5,158.5C 202.446,155.008 203.446,152.008 205.5,149.5 Z"/></g>
<g><path style="opacity:1" fill="#3f0903" d="M 19.5,151.5 C 19.3215,154.216 18.8215,156.883 18,159.5C 17.3292,160.252 16.4959,160.586 15.5,160.5C 16.4629,157.256 17.7962,154.256 19.5,151.5 Z"/></g>
<g><path style="opacity:1" fill="#636768" d="M 317.5,154.5 C 316.581,157.089 314.914,159.089 312.5,160.5C 313.419,157.911 315.086,155.911 317.5,154.5 Z"/></g>
<g><path style="opacity:1" fill="#75787b" d="M 104.5,148.5 C 101.738,152.274 100.738,156.607 101.5,161.5C 100.883,161.389 100.383,161.056 100,160.5C 99.3333,157.833 99.3333,155.167 100,152.5C 100.748,150.249 102.248,148.916 104.5,148.5 Z"/></g>
<g><path style="opacity:1" fill="#868a8d" d="M 278.5,155.5 C 275.167,160.833 270.833,165.167 265.5,168.5C 269.5,163.833 273.833,159.5 278.5,155.5 Z"/></g>
<g><path style="opacity:0.992" fill="#6c0308" d="M 482.5,158.5 C 484.601,161.797 485.935,165.463 486.5,169.5C 484,166.34 482.667,162.673 482.5,158.5 Z"/></g>
<g><path style="opacity:1" fill="#88898b" d="M 372.5,156.5 C 371.64,161.353 368.973,164.686 364.5,166.5C 367.577,163.431 370.244,160.097 372.5,156.5 Z"/></g>
<g><path style="opacity:1" fill="#6e0207" d="M 15.5,161.5 C 13.2825,170.057 10.6159,178.39 7.5,186.5C 8.99105,177.697 11.6577,169.363 15.5,161.5 Z"/></g>
<g><path style="opacity:1" fill="#4c4c4c" d="M 202.5,159.5 C 202.097,162.486 201.097,165.152 199.5,167.5C 199.307,164.189 200.307,161.522 202.5,159.5 Z"/></g>
<g><path style="opacity:1" fill="#5a5d5f" d="M 306.5,166.5 C 303.797,169.538 300.797,172.205 297.5,174.5C 299.53,170.807 302.53,168.14 306.5,166.5 Z"/></g>
<g><path style="opacity:1" fill="#838689" d="M 169.5,154.5 C 168.734,158.163 167.9,161.829 167,165.5C 165.13,168.593 163.296,171.593 161.5,174.5C 161.803,170.609 163.303,167.276 166,164.5C 166.539,161.471 167.206,158.471 168,155.5C 168.383,154.944 168.883,154.611 169.5,154.5 Z"/></g>
<g><path style="opacity:1" fill="#8e8e92" d="M 364.5,166.5 C 361.446,171.887 357.113,175.887 351.5,178.5C 355.807,174.528 360.141,170.528 364.5,166.5 Z"/></g>
<g><path style="opacity:0.937" fill="#770608" d="M 486.5,169.5 C 487.738,171.214 488.405,173.214 488.5,175.5C 486.926,173.898 486.259,171.898 486.5,169.5 Z"/></g>
<g><path style="opacity:1" fill="#515151" d="M 199.5,167.5 C 199.241,170.272 198.241,172.605 196.5,174.5C 196.557,173.391 196.89,172.391 197.5,171.5C 197.157,169.517 197.824,168.183 199.5,167.5 Z"/></g>
<g><path style="opacity:1" fill="#a3a4a4" d="M 197.5,171.5 C 196.89,172.391 196.557,173.391 196.5,174.5C 196.573,176.027 195.906,177.027 194.5,177.5C 194.621,174.895 195.621,172.895 197.5,171.5 Z"/></g>
<g><path style="opacity:1" fill="#bdbdc1" d="M 393.5,173.5 C 392.344,176.57 390.344,178.903 387.5,180.5C 388.511,178.628 389.345,176.628 390,174.5C 391.011,173.663 392.178,173.33 393.5,173.5 Z"/></g>
<g><path style="opacity:1" fill="#7a7e81" d="M 258.5,174.5 C 257.109,176.89 255.109,178.557 252.5,179.5C 253.865,177.14 255.865,175.473 258.5,174.5 Z"/></g>
<g><path style="opacity:1" fill="#84888b" d="M 161.5,176.5 C 160.555,181.709 159.055,186.709 157,191.5C 156.051,193.093 154.885,194.426 153.5,195.5C 155.424,188.733 158.091,182.4 161.5,176.5 Z"/></g>
<g><path style="opacity:0.925" fill="#7b0306" d="M 489.5,179.5 C 490.924,181.515 491.59,183.848 491.5,186.5C 490.076,184.485 489.41,182.152 489.5,179.5 Z"/></g>
<g><path style="opacity:1" fill="#686c6d" d="M 247.5,182.5 C 246.109,184.89 244.109,186.557 241.5,187.5C 242.865,185.14 244.865,183.473 247.5,182.5 Z"/></g>
<g><path style="opacity:1" fill="#596062" d="M 291.5,179.5 C 288.571,182.636 285.238,185.303 281.5,187.5C 284.024,183.894 287.357,181.228 291.5,179.5 Z"/></g>
<g><path style="opacity:1" fill="#bab9bd" d="M 351.5,178.5 C 350.206,180.296 349.206,182.296 348.5,184.5C 347.707,184.069 346.873,183.735 346,183.5C 343.853,185.478 341.353,186.811 338.5,187.5C 342.421,183.961 346.755,180.961 351.5,178.5 Z"/></g>
<g><path style="opacity:1" fill="#535456" d="M 380.5,186.5 C 379.493,188.522 377.826,189.855 375.5,190.5C 376.507,188.478 378.174,187.145 380.5,186.5 Z"/></g>
<g><path style="opacity:1" fill="#757678" d="M 241.5,187.5 C 239.371,189.95 236.704,191.617 233.5,192.5C 235.629,190.05 238.296,188.383 241.5,187.5 Z"/></g>
<g><path style="opacity:1" fill="#676a6b" d="M 277.5,190.5 C 274.554,193.313 271.221,195.646 267.5,197.5C 270.057,194.208 273.391,191.874 277.5,190.5 Z"/></g>
<g><path style="opacity:1" fill="#520604" d="M 492.5,190.5 C 493.657,193.273 494.324,196.273 494.5,199.5C 493.883,199.389 493.383,199.056 493,198.5C 492.503,195.854 492.336,193.187 492.5,190.5 Z"/></g>
<g><path style="opacity:1" fill="#460906" d="M 7.5,186.5 C 4.41914,203.879 1.75248,221.213 -0.5,238.5C -0.5,234.5 -0.5,230.5 -0.5,226.5C 1.30547,213.002 3.97214,199.669 7.5,186.5 Z"/></g>
<g><path style="opacity:1" fill="#3a3a3d" d="M 191.5,189.5 C 191.502,194.416 189.836,198.416 186.5,201.5C 187.432,196.997 189.098,192.997 191.5,189.5 Z"/></g>
<g><path style="opacity:1" fill="#7c8083" d="M 312.5,202.5 C 309.129,205.519 305.129,207.519 300.5,208.5C 304.158,205.939 308.158,203.939 312.5,202.5 Z"/></g>
<g><path style="opacity:1" fill="#7d7e80" d="M 353.5,203.5 C 352.766,204.708 352.433,206.041 352.5,207.5C 351.503,207.53 350.836,207.03 350.5,206C 350.748,204.251 351.748,203.418 353.5,203.5 Z"/></g>
<g><path style="opacity:1" fill="#b4b8ba" d="M 229.5,195.5 C 226.756,197.738 224.09,200.238 221.5,203C 217.212,204.179 213.212,205.679 209.5,207.5C 211.647,205.53 213.98,203.697 216.5,202C 221.195,200.45 225.529,198.283 229.5,195.5 Z"/></g>
<g><path style="opacity:0.996" fill="#5d0506" d="M 494.5,199.5 C 495.989,204.617 496.989,209.951 497.5,215.5C 495.227,210.549 494.227,205.216 494.5,199.5 Z"/></g>
<g><path style="opacity:1" fill="#a0a3a8" d="M 354.5,207.5 C 356.698,207.875 358.698,208.542 360.5,209.5C 357.918,209.975 355.918,209.308 354.5,207.5 Z"/></g>
<g><path style="opacity:1" fill="#2b2f31" d="M 184.5,208.5 C 183.532,211.445 183.366,214.445 184,217.5C 187.79,215.849 191.623,214.515 195.5,213.5C 191.389,217.466 186.389,219.799 180.5,220.5C 181.172,216.812 182.005,213.145 183,209.5C 183.383,208.944 183.883,208.611 184.5,208.5 Z"/></g>
<g><path style="opacity:1" fill="#7a7f81" d="M 250.5,208.5 C 246.271,212.92 241.271,216.253 235.5,218.5C 236.084,216.743 237.251,215.41 239,214.5C 242.962,212.695 246.795,210.695 250.5,208.5 Z"/></g>
<g><path style="opacity:1" fill="#44484b" d="M 384.5,221.5 C 389.777,223.777 393.777,227.444 396.5,232.5C 392.474,228.805 388.474,225.138 384.5,221.5 Z"/></g>
<g><path style="opacity:1" fill="#9fa0a3" d="M 145.5,217.5 C 144.225,224.028 141.892,230.028 138.5,235.5C 139.674,228.966 142.007,222.966 145.5,217.5 Z"/></g>
<g><path style="opacity:1" fill="#84888b" d="M 303.5,223.5 C 306.187,223.336 308.854,223.503 311.5,224C 312.416,224.278 313.082,224.778 313.5,225.5C 310.813,225.664 308.146,225.497 305.5,225C 304.584,224.722 303.918,224.222 303.5,223.5 Z"/></g>
<g><path style="opacity:1" fill="#8f9093" d="M 235.5,218.5 C 232.348,220.278 229.015,221.778 225.5,223C 224.5,224 223.5,225 222.5,226C 223.942,226.377 224.942,227.21 225.5,228.5C 221.179,227.69 220.512,225.69 223.5,222.5C 226.217,222.001 228.551,220.835 230.5,219C 232.134,218.506 233.801,218.34 235.5,218.5 Z"/></g>
<g><path style="opacity:1" fill="#7f8084" d="M 314.5,225.5 C 319.122,225.156 323.455,225.823 327.5,227.5C 322.972,227.23 318.639,226.563 314.5,225.5 Z"/></g>
<g><path style="opacity:1" fill="#86878b" d="M 327.5,227.5 C 330.916,227.528 333.916,228.528 336.5,230.5C 333.145,230.31 330.145,229.31 327.5,227.5 Z"/></g>
<g><path style="opacity:1" fill="#616468" d="M 241.5,231.5 C 243.898,231.259 245.898,231.926 247.5,233.5C 245.102,233.741 243.102,233.074 241.5,231.5 Z"/></g>
<g><path style="opacity:1" fill="#7c7b81" d="M 337.5,230.5 C 339.967,230.755 341.967,231.755 343.5,233.5C 341.033,233.245 339.033,232.245 337.5,230.5 Z"/></g>
<g><path style="opacity:0.471" fill="#680d0e" d="M 497.5,218.5 C 498.167,221.167 498.833,223.833 499.5,226.5C 499.5,229.5 499.5,232.5 499.5,235.5C 498.732,234.737 498.232,233.737 498,232.5C 497.501,227.845 497.334,223.179 497.5,218.5 Z"/></g>
<g><path style="opacity:1" fill="#6a6c70" d="M 138.5,235.5 C 138.245,237.967 137.245,239.967 135.5,241.5C 135.755,239.033 136.755,237.033 138.5,235.5 Z"/></g>
<g><path style="opacity:1" fill="#b5b9bc" d="M 344.5,234.5 C 348.651,235.569 352.651,237.235 356.5,239.5C 357.705,240.577 358.372,241.91 358.5,243.5C 354.168,239.999 349.502,236.999 344.5,234.5 Z"/></g>
<g><path style="opacity:1" fill="#5a5e60" d="M 277.5,243.5 C 279.967,243.755 281.967,244.755 283.5,246.5C 281.033,246.245 279.033,245.245 277.5,243.5 Z"/></g>
<g><path style="opacity:1" fill="#515558" d="M 283.5,246.5 C 286.546,246.725 288.879,248.058 290.5,250.5C 287.9,249.532 285.566,248.199 283.5,246.5 Z"/></g>
<g><path style="opacity:1" fill="#6a6f74" d="M 181.5,248.5 C 182.492,248.328 183.158,248.662 183.5,249.5C 178.489,249.334 173.489,249.501 168.5,250C 167.956,250.717 167.289,251.217 166.5,251.5C 166.414,250.504 166.748,249.671 167.5,249C 172.155,248.501 176.821,248.334 181.5,248.5 Z"/></g>
<g><path style="opacity:1" fill="#7c8286" d="M 183.5,249.5 C 189.509,249.334 195.509,249.501 201.5,250C 202.416,250.278 203.082,250.778 203.5,251.5C 196.676,250.995 190.009,250.329 183.5,249.5 Z"/></g>
<g><path style="opacity:1" fill="#010202" d="M 183.5,249.5 C 190.009,250.329 196.676,250.995 203.5,251.5C 205.735,251.205 207.735,251.539 209.5,252.5C 217.275,254.133 225.275,255.466 233.5,256.5C 234.167,256.5 234.833,256.5 235.5,256.5C 239.388,258.165 243.388,259.832 247.5,261.5C 248.609,261.557 249.609,261.89 250.5,262.5C 255.285,264.736 259.618,267.736 263.5,271.5C 264.833,272.167 265.833,273.167 266.5,274.5C 266.369,275.239 266.536,275.906 267,276.5C 268.4,277.748 269.9,278.748 271.5,279.5C 272.5,281.5 273.5,283.5 274.5,285.5C 275.88,288.911 277.214,292.244 278.5,295.5C 280.072,300.342 279.738,305.009 277.5,309.5C 275.755,311.033 274.755,313.033 274.5,315.5C 272.529,317.808 270.529,320.142 268.5,322.5C 264.044,325.454 260.044,328.954 256.5,333C 251.745,334.654 247.411,336.821 243.5,339.5C 239.965,340.893 236.298,342.06 232.5,343C 231.944,343.383 231.611,343.883 231.5,344.5C 228.848,344.41 226.515,345.076 224.5,346.5C 223.833,346.5 223.167,346.5 222.5,346.5C 208.541,349.029 194.874,351.696 181.5,354.5C 179.5,354.5 177.5,354.5 175.5,354.5C 169.183,355.094 162.849,355.594 156.5,356C 155.263,356.232 154.263,356.732 153.5,357.5C 150.167,357.5 146.833,357.5 143.5,357.5C 138.819,357.669 134.152,358.002 129.5,358.5C 129.5,355.833 129.5,353.167 129.5,350.5C 129.5,350.167 129.5,349.833 129.5,349.5C 130.117,349.389 130.617,349.056 131,348.5C 131.44,346.134 131.94,343.801 132.5,341.5C 134.928,337.593 136.595,333.26 137.5,328.5C 142.385,313.293 147.718,298.293 153.5,283.5C 155.245,281.967 156.245,279.967 156.5,277.5C 156.232,275.901 156.566,274.568 157.5,273.5C 159.72,265.838 162.72,258.505 166.5,251.5C 167.289,251.217 167.956,250.717 168.5,250C 173.489,249.501 178.489,249.334 183.5,249.5 Z"/></g>
<g><path style="opacity:1" fill="#bfc3c6" d="M 398.5,235.5 C 404.739,240.742 408.406,247.409 409.5,255.5C 407.229,252.617 405.729,249.284 405,245.5C 404.282,246.451 403.449,246.617 402.5,246C 403.517,244.951 403.684,243.784 403,242.5C 401.167,241.333 399.333,240.167 397.5,239C 398.337,237.989 398.67,236.822 398.5,235.5 Z"/></g>
<g><path style="opacity:1" fill="#888d92" d="M 209.5,252.5 C 218.099,251.516 226.099,252.85 233.5,256.5C 225.275,255.466 217.275,254.133 209.5,252.5 Z"/></g>
<g><path style="opacity:1" fill="#d7dddf" d="M 181.5,248.5 C 176.821,248.334 172.155,248.501 167.5,249C 166.748,249.671 166.414,250.504 166.5,251.5C 162.72,258.505 159.72,265.838 157.5,273.5C 157.777,270.552 157.444,267.719 156.5,265C 157.253,263.513 158.086,263.346 159,264.5C 160.631,262.045 160.797,259.545 159.5,257C 160.595,255.325 162.095,254.158 164,253.5C 164.813,251.564 165.313,249.564 165.5,247.5C 171.026,247.179 176.36,247.512 181.5,248.5 Z"/></g>
<g><path style="opacity:1" fill="#686a6d" d="M 235.5,256.5 C 240.226,256.841 244.226,258.508 247.5,261.5C 243.388,259.832 239.388,258.165 235.5,256.5 Z"/></g>
<g><path style="opacity:1" fill="#65696c" d="M 366.5,254.5 C 368.245,256.033 369.245,258.033 369.5,260.5C 367.755,258.967 366.755,256.967 366.5,254.5 Z"/></g>
<g><path style="opacity:1" fill="#c3c7c8" d="M 250.5,262.5 C 253.549,263.357 256.549,263.357 259.5,262.5C 260.5,263 261.5,263.5 262.5,264C 261.572,264.388 260.905,265.055 260.5,266C 261.741,267.731 262.741,269.564 263.5,271.5C 259.618,267.736 255.285,264.736 250.5,262.5 Z"/></g>
<g><path style="opacity:1" fill="#787e81" d="M 128.5,260.5 C 128.175,265.463 126.508,269.796 123.5,273.5C 124.738,269.608 125.905,265.608 127,261.5C 127.383,260.944 127.883,260.611 128.5,260.5 Z"/></g>
<g><path style="opacity:1" fill="#3e0705" d="M -0.5,263.5 C 0.117425,263.611 0.617425,263.944 1,264.5C 2.41929,274.451 3.25262,284.451 3.5,294.5C 2.19854,290.057 1.53188,285.391 1.5,280.5C 1.84394,275.878 1.17727,271.545 -0.5,267.5C -0.5,266.167 -0.5,264.833 -0.5,263.5 Z"/></g>
<g><path style="opacity:1" fill="#848a8c" d="M 411.5,263.5 C 412.165,266.649 412.498,269.982 412.5,273.5C 412.666,278.755 411.999,283.755 410.5,288.5C 411.124,280.181 411.457,271.848 411.5,263.5 Z"/></g>
<g><path style="opacity:0.678" fill="#85090c" d="M -0.5,267.5 C 1.17727,271.545 1.84394,275.878 1.5,280.5C 0.833333,277.833 0.166667,275.167 -0.5,272.5C -0.5,270.833 -0.5,269.167 -0.5,267.5 Z"/></g>
<g><path style="opacity:1" fill="#2b2e31" d="M 369.5,261.5 C 370.797,263.371 371.797,265.371 372.5,267.5C 372.824,274.354 372.491,281.021 371.5,287.5C 371.164,278.802 370.497,270.135 369.5,261.5 Z"/></g>
<g><path style="opacity:1" fill="#85898c" d="M 266.5,274.5 C 268.833,275.5 270.5,277.167 271.5,279.5C 269.9,278.748 268.4,277.748 267,276.5C 266.536,275.906 266.369,275.239 266.5,274.5 Z"/></g>
<g><path style="opacity:1" fill="#92969a" d="M 372.5,267.5 C 373.657,275.99 373.824,284.657 373,293.5C 372.154,297.388 370.987,301.055 369.5,304.5C 370.354,298.858 371.02,293.191 371.5,287.5C 372.491,281.021 372.824,274.354 372.5,267.5 Z"/></g>
<g><path style="opacity:1" fill="#5e646a" d="M 123.5,273.5 C 123.241,276.272 122.241,278.605 120.5,280.5C 120.759,277.728 121.759,275.395 123.5,273.5 Z"/></g>
<g><path style="opacity:1" fill="#626768" d="M 313.5,274.5 C 315.38,276.755 316.38,279.422 316.5,282.5C 314.62,280.245 313.62,277.578 313.5,274.5 Z"/></g>
<g><path style="opacity:1" fill="#727677" d="M 156.5,277.5 C 156.245,279.967 155.245,281.967 153.5,283.5C 153.755,281.033 154.755,279.033 156.5,277.5 Z"/></g>
<g><path style="opacity:1" fill="#474c51" d="M 120.5,281.5 C 120.245,283.967 119.245,285.967 117.5,287.5C 117.755,285.033 118.755,283.033 120.5,281.5 Z"/></g>
<g><path style="opacity:0.235" fill="#7e0408" d="M 497.5,280.5 C 497.72,285.1 497.054,289.433 495.5,293.5C 495.624,288.951 496.291,284.618 497.5,280.5 Z"/></g>
<g><path style="opacity:1" fill="#a9afb2" d="M 274.5,285.5 C 275.5,285.5 276.5,285.5 277.5,285.5C 278.207,288.786 278.54,292.119 278.5,295.5C 277.214,292.244 275.88,288.911 274.5,285.5 Z"/></g>
<g><path style="opacity:1" fill="#979ba0" d="M 117.5,288.5 C 117.11,291.839 116.61,295.173 116,298.5C 115.051,300.093 113.885,301.426 112.5,302.5C 114.173,297.724 115.84,293.057 117.5,288.5 Z"/></g>
<g><path style="opacity:1" fill="#7c8586" d="M 410.5,289.5 C 409.895,292.127 409.395,294.793 409,297.5C 408.617,298.056 408.117,298.389 407.5,298.5C 408.105,295.873 408.605,293.207 409,290.5C 409.383,289.944 409.883,289.611 410.5,289.5 Z"/></g>
<g><path style="opacity:1" fill="#6d7373" d="M 316.5,282.5 C 317.165,285.314 317.498,288.314 317.5,291.5C 317.684,296.107 317.017,300.44 315.5,304.5C 316.118,297.183 316.451,289.849 316.5,282.5 Z"/></g>
<g><path style="opacity:1" fill="#52575a" d="M 407.5,301.5 C 407.241,304.272 406.241,306.605 404.5,308.5C 404.643,305.615 405.643,303.282 407.5,301.5 Z"/></g>
<g><path style="opacity:1" fill="#484c4f" d="M 277.5,309.5 C 277.245,311.967 276.245,313.967 274.5,315.5C 274.755,313.033 275.755,311.033 277.5,309.5 Z"/></g>
<g><path style="opacity:1" fill="#aaabaf" d="M 369.5,305.5 C 369.115,312.359 366.448,318.026 361.5,322.5C 364.896,317.082 367.563,311.415 369.5,305.5 Z"/></g>
<g><path style="opacity:1" fill="#630407" d="M 7.5,312.5 C 8.11742,312.611 8.61742,312.944 9,313.5C 9.49546,315.473 9.66212,317.473 9.5,319.5C 8.38815,317.401 7.72148,315.067 7.5,312.5 Z"/></g>
<g><path style="opacity:1" fill="#5a090c" d="M 491.5,313.5 C 490.79,317.025 489.79,320.358 488.5,323.5C 488.336,320.813 488.503,318.146 489,315.5C 489.417,314.244 490.25,313.577 491.5,313.5 Z"/></g>
<g><path style="opacity:1" fill="#60686b" d="M 402.5,313.5 C 401.617,316.704 399.95,319.371 397.5,321.5C 398.454,318.249 400.12,315.582 402.5,313.5 Z"/></g>
<g><path style="opacity:1" fill="#888d91" d="M 112.5,303.5 C 110.707,312.564 107.374,320.897 102.5,328.5C 102.523,326.073 103.023,323.74 104,321.5C 106.565,315.269 109.398,309.269 112.5,303.5 Z"/></g>
<g><path style="opacity:1" fill="#2d3335" d="M 311.5,313.5 C 311.374,315.2 310.707,316.7 309.5,318C 311.141,319.646 310.807,320.646 308.5,321C 308.833,321.333 309.167,321.667 309.5,322C 305.96,323.524 302.96,325.691 300.5,328.5C 301.473,324.9 303.64,322.233 307,320.5C 307.324,317.294 308.824,314.961 311.5,313.5 Z"/></g>
<g><path style="opacity:1" fill="#a7a8ab" d="M 361.5,322.5 C 361.087,324.89 360.421,327.223 359.5,329.5C 356.46,332.211 353.46,334.878 350.5,337.5C 353.433,331.932 357.099,326.932 361.5,322.5 Z"/></g>
<g><path style="opacity:1" fill="#686c6e" d="M 397.5,322.5 C 396.994,325.671 395.328,328.004 392.5,329.5C 393.852,326.835 395.518,324.502 397.5,322.5 Z"/></g>
<g><path style="opacity:0.612" fill="#770206" d="M 10.5,323.5 C 12.554,326.008 13.554,329.008 13.5,332.5C 11.9281,329.785 10.9281,326.785 10.5,323.5 Z"/></g>
<g><path style="opacity:1" fill="#54595c" d="M 300.5,328.5 C 299.109,330.89 297.109,332.557 294.5,333.5C 295.865,331.14 297.865,329.473 300.5,328.5 Z"/></g>
<g><path style="opacity:0.588" fill="#8d0207" d="M 488.5,323.5 C 488.072,326.785 487.072,329.785 485.5,332.5C 485.528,329.084 486.528,326.084 488.5,323.5 Z"/></g>
<g><path style="opacity:1" fill="#636a6f" d="M 102.5,329.5 C 102.379,332.105 101.379,334.105 99.5,335.5C 99.7549,333.033 100.755,331.033 102.5,329.5 Z"/></g>
<g><path style="opacity:1" fill="#bfc2c5" d="M 268.5,322.5 C 265.009,325.839 262.009,329.672 259.5,334C 254.543,336.052 249.209,337.885 243.5,339.5C 247.411,336.821 251.745,334.654 256.5,333C 260.044,328.954 264.044,325.454 268.5,322.5 Z"/></g>
<g><path style="opacity:1" fill="#424244" d="M 137.5,328.5 C 136.595,333.26 134.928,337.593 132.5,341.5C 132.891,336.521 134.558,332.188 137.5,328.5 Z"/></g>
<g><path style="opacity:1" fill="#747a7d" d="M 392.5,330.5 C 391.557,333.109 389.89,335.109 387.5,336.5C 388.473,333.865 390.14,331.865 392.5,330.5 Z"/></g>
<g><path style="opacity:1" fill="#4f0905" d="M 15.5,337.5 C 16.1499,337.804 16.8165,338.137 17.5,338.5C 18.4891,341.438 19.1558,344.438 19.5,347.5C 17.5968,344.47 16.2635,341.137 15.5,337.5 Z"/></g>
<g><path style="opacity:1" fill="#470b05" d="M 483.5,337.5 C 483.02,340.443 482.02,343.11 480.5,345.5C 480.5,342.833 480.5,340.167 480.5,337.5C 481.5,337.5 482.5,337.5 483.5,337.5 Z"/></g>
<g><path style="opacity:1" fill="#a5a9ab" d="M 243.5,339.5 C 243.586,340.496 243.252,341.329 242.5,342C 238.829,342.9 235.163,343.734 231.5,344.5C 231.611,343.883 231.944,343.383 232.5,343C 236.298,342.06 239.965,340.893 243.5,339.5 Z"/></g>
<g><path style="opacity:1" fill="#62656a" d="M 99.5,336.5 C 98.6406,340.964 96.9739,344.964 94.5,348.5C 95.3594,344.036 97.0261,340.036 99.5,336.5 Z"/></g>
<g><path style="opacity:1" fill="#8b8d8f" d="M 348.5,339.5 C 347.92,341.749 346.587,343.415 344.5,344.5C 345.08,342.251 346.413,340.585 348.5,339.5 Z"/></g>
<g><path style="opacity:1" fill="#656a6d" d="M 384.5,340.5 C 382.832,342.34 381.332,344.34 380,346.5C 379.184,347.823 378.017,348.489 376.5,348.5C 378.288,344.896 380.955,342.23 384.5,340.5 Z"/></g>
<g><path style="opacity:1" fill="#818486" d="M 231.5,344.5 C 229.562,346.163 227.228,346.829 224.5,346.5C 226.515,345.076 228.848,344.41 231.5,344.5 Z"/></g>
<g><path style="opacity:1" fill="#505153" d="M 132.5,341.5 C 131.94,343.801 131.44,346.134 131,348.5C 130.617,349.056 130.117,349.389 129.5,349.5C 130.06,347.199 130.56,344.866 131,342.5C 131.383,341.944 131.883,341.611 132.5,341.5 Z"/></g>
<g><path style="opacity:1" fill="#9fa2a4" d="M 344.5,344.5 C 342.1,347.903 339.1,350.57 335.5,352.5C 337.9,349.097 340.9,346.43 344.5,344.5 Z"/></g>
<g><path style="opacity:1" fill="#4a0b06" d="M 19.5,347.5 C 20.5,347.5 21.5,347.5 22.5,347.5C 22.9629,350.482 23.2962,353.482 23.5,356.5C 21.4082,353.912 20.0749,350.912 19.5,347.5 Z"/></g>
<g><path style="opacity:1" fill="#929698" d="M 222.5,346.5 C 222.389,347.117 222.056,347.617 221.5,348C 208.24,350.632 194.907,352.799 181.5,354.5C 194.874,351.696 208.541,349.029 222.5,346.5 Z"/></g>
<g><path style="opacity:0.843" fill="#730309" d="M 480.5,345.5 C 479.736,348.018 478.736,350.351 477.5,352.5C 477.166,349.509 478.166,347.176 480.5,345.5 Z"/></g>
<g><path style="opacity:1" fill="#797e80" d="M 271.5,349.5 C 269.001,351.938 266.001,353.605 262.5,354.5C 264.748,351.607 267.748,349.94 271.5,349.5 Z"/></g>
<g><path style="opacity:1" fill="#75797c" d="M 94.5,349.5 C 94.2451,351.967 93.2451,353.967 91.5,355.5C 91.7549,353.033 92.7549,351.033 94.5,349.5 Z"/></g>
<g><path style="opacity:1" fill="#535457" d="M 175.5,354.5 C 175.082,355.222 174.416,355.722 173.5,356C 170.183,356.498 166.85,356.665 163.5,356.5C 160.193,357.051 156.86,357.384 153.5,357.5C 154.263,356.732 155.263,356.232 156.5,356C 162.849,355.594 169.183,355.094 175.5,354.5 Z"/></g>
<g><path style="opacity:1" fill="#27282a" d="M 129.5,350.5 C 129.5,353.167 129.5,355.833 129.5,358.5C 134.152,358.002 138.819,357.669 143.5,357.5C 142.5,358.167 141.5,358.833 140.5,359.5C 136.167,359.5 131.833,359.5 127.5,359.5C 127.215,356.171 127.882,353.171 129.5,350.5 Z"/></g>
<g><path style="opacity:1" fill="#a0a1a3" d="M 163.5,356.5 C 163.389,357.117 163.056,357.617 162.5,358C 155.142,358.316 147.809,358.816 140.5,359.5C 141.5,358.833 142.5,358.167 143.5,357.5C 146.833,357.5 150.167,357.5 153.5,357.5C 156.86,357.384 160.193,357.051 163.5,356.5 Z"/></g>
<g><path style="opacity:1" fill="#4a0b06" d="M 477.5,352.5 C 475.341,358.151 472.674,363.484 469.5,368.5C 471.418,363.243 473.084,357.91 474.5,352.5C 475.5,352.5 476.5,352.5 477.5,352.5 Z"/></g>
<g><path style="opacity:0.741" fill="#6d0304" d="M 23.5,356.5 C 25.1042,357.287 25.7709,358.62 25.5,360.5C 24.3263,359.486 23.6596,358.153 23.5,356.5 Z"/></g>
<g><path style="opacity:1" fill="#4a4e52" d="M 368.5,356.5 C 366.166,359.829 363.166,362.496 359.5,364.5C 361.834,361.171 364.834,358.504 368.5,356.5 Z"/></g>
<g><path style="opacity:1" fill="#868786" d="M 330.5,356.5 C 325.646,361.341 319.98,365.007 313.5,367.5C 318.892,363.447 324.559,359.78 330.5,356.5 Z"/></g>
<g><path style="opacity:1" fill="#4c4e52" d="M 243.5,361.5 C 241.605,363.241 239.272,364.241 236.5,364.5C 238.282,362.643 240.615,361.643 243.5,361.5 Z"/></g>
<g><path style="opacity:1" fill="#490c07" d="M 25.5,360.5 C 29.2452,362.705 30.9118,366.039 30.5,370.5C 28.3256,367.485 26.6589,364.151 25.5,360.5 Z"/></g>
<g><path style="opacity:1" fill="#414548" d="M 235.5,364.5 C 229.932,367.351 223.932,369.017 217.5,369.5C 217.611,368.883 217.944,368.383 218.5,368C 222.133,367.851 225.466,367.018 228.5,365.5C 230.806,365.007 233.139,364.674 235.5,364.5 Z"/></g>
<g><path style="opacity:1" fill="#818484" d="M 313.5,367.5 C 311.418,369.88 308.751,371.546 305.5,372.5C 307.629,370.05 310.296,368.383 313.5,367.5 Z"/></g>
<g><path style="opacity:1" fill="#444c4e" d="M 216.5,369.5 C 212.817,371.25 208.817,371.917 204.5,371.5C 208.316,370.518 212.316,369.851 216.5,369.5 Z"/></g>
<g><path style="opacity:0.459" fill="#7c0306" d="M 469.5,368.5 C 469.25,370.674 468.25,372.341 466.5,373.5C 466.75,371.326 467.75,369.659 469.5,368.5 Z"/></g>
<g><path style="opacity:1" fill="#d6dde0" d="M 228.5,365.5 C 225.466,367.018 222.133,367.851 218.5,368C 217.944,368.383 217.611,368.883 217.5,369.5C 217.167,369.5 216.833,369.5 216.5,369.5C 212.316,369.851 208.316,370.518 204.5,371.5C 198.403,371.567 192.736,372.567 187.5,374.5C 186.833,374.5 186.167,374.5 185.5,374.5C 182.098,374.342 178.764,374.676 175.5,375.5C 175.611,374.883 175.944,374.383 176.5,374C 193.845,370.728 211.178,367.894 228.5,365.5 Z"/></g>
<g><path style="opacity:0.318" fill="#950607" d="M 30.5,370.5 C 31.9063,370.973 32.573,371.973 32.5,373.5C 31.0937,373.027 30.427,372.027 30.5,370.5 Z"/></g>
<g><path style="opacity:1" fill="#50585b" d="M 204.5,371.5 C 204.389,372.117 204.056,372.617 203.5,373C 198.192,373.83 192.859,374.33 187.5,374.5C 192.736,372.567 198.403,371.567 204.5,371.5 Z"/></g>
<g><path style="opacity:1" fill="#4b0c06" d="M 466.5,373.5 C 465.921,376.331 464.588,378.664 462.5,380.5C 462.5,378.5 462.5,376.5 462.5,374.5C 463.959,374.567 465.292,374.234 466.5,373.5 Z"/></g>
<g><path style="opacity:1" fill="#bec2c6" d="M 90.5,359.5 C 89.0048,364.648 88.0048,369.982 87.5,375.5C 87.6374,377.883 87.9707,380.217 88.5,382.5C 87.4138,382.38 86.7472,381.713 86.5,380.5C 84.9537,372.845 86.2871,365.845 90.5,359.5 Z"/></g>
<g><path style="opacity:1" fill="#5c0907" d="M 33.5,375.5 C 36.258,377.379 37.9247,380.046 38.5,383.5C 36.0499,381.371 34.3833,378.704 33.5,375.5 Z"/></g>
<g><path style="opacity:1" fill="#9ca1a5" d="M 173.5,375.5 C 169.409,376.895 165.076,377.562 160.5,377.5C 164.545,375.823 168.878,375.156 173.5,375.5 Z"/></g>
<g><path style="opacity:1" fill="#373c40" d="M 185.5,374.5 C 173.186,377.769 160.519,379.436 147.5,379.5C 147.5,379.167 147.5,378.833 147.5,378.5C 151.798,377.8 156.131,377.467 160.5,377.5C 165.076,377.562 169.409,376.895 173.5,375.5C 174.167,375.5 174.833,375.5 175.5,375.5C 178.764,374.676 182.098,374.342 185.5,374.5 Z"/></g>
<g><path style="opacity:1" fill="#5f6160" d="M 298.5,375.5 C 296.967,377.245 294.967,378.245 292.5,378.5C 294.033,376.755 296.033,375.755 298.5,375.5 Z"/></g>
<g><path style="opacity:0.004" fill="#fe00ff" d="M 491.5,377.5 C 492.833,378.167 492.833,378.167 491.5,377.5 Z"/></g>
<g><path style="opacity:1" fill="#aaafb2" d="M 147.5,378.5 C 147.5,378.833 147.5,379.167 147.5,379.5C 146.833,379.5 146.167,379.5 145.5,379.5C 141.466,379.505 137.466,379.838 133.5,380.5C 133.918,379.778 134.584,379.278 135.5,379C 139.486,378.501 143.486,378.334 147.5,378.5 Z"/></g>
<g><path style="opacity:1" fill="#2e3538" d="M 145.5,379.5 C 135.236,381.986 124.569,383.653 113.5,384.5C 115.5,383.833 117.5,383.167 119.5,382.5C 124.216,382.154 128.883,381.487 133.5,380.5C 137.466,379.838 141.466,379.505 145.5,379.5 Z"/></g>
<g><path style="opacity:0.353" fill="#80050b" d="M 462.5,380.5 C 462.573,382.027 461.906,383.027 460.5,383.5C 460.427,381.973 461.094,380.973 462.5,380.5 Z"/></g>
<g><path style="opacity:1" fill="#93999e" d="M 88.5,382.5 C 98.802,383.646 109.135,383.646 119.5,382.5C 117.5,383.167 115.5,383.833 113.5,384.5C 106.168,385.111 98.8351,385.278 91.5,385C 90.0577,384.623 89.0577,383.79 88.5,382.5 Z"/></g>
<g><path style="opacity:1" fill="#b9bcbc" d="M 303.5,373.5 C 301.744,375.945 299.411,377.778 296.5,379C 289.19,382.381 281.523,384.881 273.5,386.5C 279.847,383.989 286.18,381.322 292.5,378.5C 294.967,378.245 296.967,377.245 298.5,375.5C 299.82,374.058 301.486,373.392 303.5,373.5 Z"/></g>
<g><path style="opacity:1" fill="#530805" d="M 38.5,383.5 C 40.7593,384.344 41.7593,386.011 41.5,388.5C 40.1103,387.101 39.1103,385.434 38.5,383.5 Z"/></g>
<g><path style="opacity:0.004" fill="#fe0000" d="M 459.5,386.5 C 460.833,387.167 460.833,387.167 459.5,386.5 Z"/></g>
<g><path style="opacity:1" fill="#630607" d="M 41.5,388.5 C 44.264,389.948 45.9307,392.281 46.5,395.5C 44.4776,393.469 42.8109,391.135 41.5,388.5 Z"/></g>
<g><path style="opacity:1" fill="#8c9092" d="M 273.5,386.5 C 270.46,388.346 267.127,389.679 263.5,390.5C 266.192,387.819 269.525,386.486 273.5,386.5 Z"/></g>
<g><path style="opacity:1" fill="#25292b" d="M 333.5,382.5 C 330.665,385.307 327.665,387.973 324.5,390.5C 320.205,393.109 315.538,394.776 310.5,395.5C 318.378,391.64 326.045,387.307 333.5,382.5 Z"/></g>
<g><path style="opacity:0.129" fill="#aa0709" d="M 457.5,388.5 C 457.573,390.027 456.906,391.027 455.5,391.5C 455.427,389.973 456.094,388.973 457.5,388.5 Z"/></g>
<g><path style="opacity:1" fill="#a6acae" d="M 261.5,390.5 C 257.618,393.898 252.951,395.565 247.5,395.5C 251.799,393.065 256.465,391.398 261.5,390.5 Z"/></g>
<g><path style="opacity:0.251" fill="#890b14" d="M 454.5,392.5 C 454.573,394.027 453.906,395.027 452.5,395.5C 452.427,393.973 453.094,392.973 454.5,392.5 Z"/></g>
<g><path style="opacity:0.22" fill="#7f040d" d="M 46.5,395.5 C 48.2624,396.262 49.2624,397.596 49.5,399.5C 47.7376,398.738 46.7376,397.404 46.5,395.5 Z"/></g>
<g><path style="opacity:0.004" fill="#fe0000" d="M 486.5,397.5 C 487.833,398.167 487.833,398.167 486.5,397.5 Z"/></g>
<g><path style="opacity:1" fill="#a0a6aa" d="M 247.5,395.5 C 244.731,396.972 241.731,398.139 238.5,399C 236.19,399.497 233.857,399.663 231.5,399.5C 236.576,397.595 241.909,396.261 247.5,395.5 Z"/></g>
<g><path style="opacity:0.039" fill="#910f03" d="M 449.5,399.5 C 449.573,401.027 448.906,402.027 447.5,402.5C 447.5,402.167 447.5,401.833 447.5,401.5C 447.833,400.5 448.5,399.833 449.5,399.5 Z"/></g>
<g><path style="opacity:1" fill="#2d0b03" d="M 447.5,401.5 C 447.5,401.833 447.5,402.167 447.5,402.5C 446.2,405.432 444.2,407.766 441.5,409.5C 441.167,409.5 440.833,409.5 440.5,409.5C 440.854,407.459 440.854,405.626 440.5,404C 442.441,402.097 444.774,401.264 447.5,401.5 Z"/></g>
<g><path style="opacity:1" fill="#9da0a2" d="M 231.5,399.5 C 226.224,401.932 220.557,403.265 214.5,403.5C 219.953,401.641 225.62,400.308 231.5,399.5 Z"/></g>
<g><path style="opacity:0.004" fill="#fe0000" d="M 471.5,402.5 C 472.833,403.167 472.833,403.167 471.5,402.5 Z"/></g>
<g><path style="opacity:1" fill="#490c0a" d="M 49.5,399.5 C 50.5,399.5 51.5,399.5 52.5,399.5C 53.7834,402.01 54.7834,404.677 55.5,407.5C 53.1223,405.122 51.1223,402.455 49.5,399.5 Z"/></g>
<g><path style="opacity:1" fill="#6f7072" d="M 209.5,403.5 C 207.22,405.223 204.553,405.889 201.5,405.5C 203.905,404.232 206.572,403.565 209.5,403.5 Z"/></g>
<g><path style="opacity:1" fill="#8b8f92" d="M 199.5,405.5 C 195.841,407.342 191.841,408.342 187.5,408.5C 187.611,407.883 187.944,407.383 188.5,407C 192.191,406.58 195.858,406.08 199.5,405.5 Z"/></g>
<g><path style="opacity:0.039" fill="#900c10" d="M 57.5,409.5 C 58.9063,409.973 59.573,410.973 59.5,412.5C 58.0937,412.027 57.427,411.027 57.5,409.5 Z"/></g>
<g><path style="opacity:1" fill="#808488" d="M 178.5,409.5 C 172.359,410.636 166.026,411.303 159.5,411.5C 165.584,409.823 171.918,409.156 178.5,409.5 Z"/></g>
<g><path style="opacity:0.176" fill="#84040b" d="M 440.5,409.5 C 440.833,409.5 441.167,409.5 441.5,409.5C 440.92,411.749 439.587,413.415 437.5,414.5C 438.075,412.589 439.075,410.922 440.5,409.5 Z"/></g>
<g><path style="opacity:1" fill="#420806" d="M 59.5,412.5 C 62.179,412.525 63.5123,413.858 63.5,416.5C 61.8333,415.5 60.5,414.167 59.5,412.5 Z"/></g>
<g><path style="opacity:1" fill="#5d6164" d="M 151.5,411.5 C 144.543,412.922 137.543,414.589 130.5,416.5C 136.839,412.82 143.839,411.154 151.5,411.5 Z"/></g>
<g><path style="opacity:1" fill="#5d6366" d="M 273.5,410.5 C 263.448,415.163 252.781,418.163 241.5,419.5C 252.065,416.539 262.731,413.539 273.5,410.5 Z"/></g>
<g><path style="opacity:0.031" fill="#930711" d="M 63.5,416.5 C 65.5869,417.585 66.9202,419.251 67.5,421.5C 65.4131,420.415 64.0798,418.749 63.5,416.5 Z"/></g>
<g><path style="opacity:1" fill="#686c70" d="M 128.5,417.5 C 126.544,418.492 124.544,419.492 122.5,420.5C 123.687,418.025 125.687,417.025 128.5,417.5 Z"/></g>
<g><path style="opacity:0.047" fill="#9d090e" d="M 435.5,416.5 C 433.57,420.1 430.903,423.1 427.5,425.5C 429.43,421.9 432.097,418.9 435.5,416.5 Z"/></g>
<g><path style="opacity:0.831" fill="#7f070c" d="M 67.5,421.5 C 70.5,422.5 72.5,424.5 73.5,427.5C 71.1667,425.833 69.1667,423.833 67.5,421.5 Z"/></g>
<g><path style="opacity:1" fill="#565a5e" d="M 241.5,419.5 C 236.641,422.021 231.308,423.355 225.5,423.5C 230.422,420.936 235.755,419.603 241.5,419.5 Z"/></g>
<g><path style="opacity:0.847" fill="#880509" d="M 73.5,427.5 C 76.7642,429.094 79.4309,431.427 81.5,434.5C 78.2358,432.906 75.5691,430.573 73.5,427.5 Z"/></g>
<g><path style="opacity:1" fill="#92969a" d="M 121.5,421.5 C 119.676,424.846 119.01,428.513 119.5,432.5C 118.883,432.389 118.383,432.056 118,431.5C 117.333,429.167 117.333,426.833 118,424.5C 118.422,422.574 119.589,421.574 121.5,421.5 Z"/></g>
<g><path style="opacity:1" fill="#2c3135" d="M 223.5,423.5 C 215.985,426.869 207.985,428.535 199.5,428.5C 207.293,426.419 215.293,424.752 223.5,423.5 Z"/></g>
<g><path style="opacity:1" fill="#cad0d3" d="M 183.5,429.5 C 180.456,431.011 177.122,431.678 173.5,431.5C 169.143,431.586 164.81,431.92 160.5,432.5C 161.808,431.768 163.142,430.934 164.5,430C 170.825,429.5 177.158,429.334 183.5,429.5 Z"/></g>
<g><path style="opacity:0.027" fill="#9f0510" d="M 425.5,427.5 C 423.833,429.833 421.833,431.833 419.5,433.5C 419.5,433.167 419.5,432.833 419.5,432.5C 420.911,430.086 422.911,428.419 425.5,427.5 Z"/></g>
<g><path style="opacity:1" fill="#5d6468" d="M 173.5,431.5 C 171.5,432.167 169.5,432.833 167.5,433.5C 166.167,433.5 164.833,433.5 163.5,433.5C 162.167,433.5 160.833,433.5 159.5,433.5C 159.5,432.833 159.833,432.5 160.5,432.5C 164.81,431.92 169.143,431.586 173.5,431.5 Z"/></g>
<g><path style="opacity:1" fill="#252a2e" d="M 195.5,428.5 C 195.082,429.222 194.416,429.722 193.5,430C 184.896,431.712 176.229,432.879 167.5,433.5C 169.5,432.833 171.5,432.167 173.5,431.5C 177.122,431.678 180.456,431.011 183.5,429.5C 187.534,429.495 191.534,429.162 195.5,428.5 Z"/></g>
<g><path style="opacity:1" fill="#3e0d05" d="M 419.5,432.5 C 419.5,432.833 419.5,433.167 419.5,433.5C 416.767,436.239 413.767,438.573 410.5,440.5C 411.21,438.254 411.71,435.92 412,433.5C 414.178,436.468 415.344,436.135 415.5,432.5C 416.833,432.5 418.167,432.5 419.5,432.5 Z"/></g>
<g><path style="opacity:1" fill="#670305" d="M 81.5,434.5 C 84.4274,435.757 86.7607,437.757 88.5,440.5C 85.5726,439.243 83.2393,437.243 81.5,434.5 Z"/></g>
<g><path style="opacity:1" fill="#27292d" d="M 159.5,433.5 C 160.833,433.5 162.167,433.5 163.5,433.5C 162.737,434.268 161.737,434.768 160.5,435C 147.351,436.51 134.351,436.677 121.5,435.5C 134.218,435.68 146.885,435.013 159.5,433.5 Z"/></g>
<g><path style="opacity:0.004" fill="#fe0000" d="M 81.5,441.5 C 82.8333,442.167 82.8333,442.167 81.5,441.5 Z"/></g>
<g><path style="opacity:1" fill="#340d05" d="M 410.5,440.5 C 407.905,444.126 404.572,446.792 400.5,448.5C 401.968,446.389 401.635,444.556 399.5,443C 403.137,442.899 406.803,442.065 410.5,440.5 Z"/></g>
<g><path style="opacity:0.808" fill="#780409" d="M 88.5,440.5 C 90.0618,440.733 91.3951,441.4 92.5,442.5C 93.1667,443.5 93.8333,444.5 94.5,445.5C 91.9108,444.581 89.9108,442.914 88.5,440.5 Z"/></g>
<g><path style="opacity:1" fill="#290901" d="M 92.5,442.5 C 94.4817,442.995 96.4817,443.495 98.5,444C 99.7461,446.593 101.079,449.093 102.5,451.5C 99.4669,449.984 96.8003,447.984 94.5,445.5C 93.8333,444.5 93.1667,443.5 92.5,442.5 Z"/></g>
<g><path style="opacity:0.004" fill="#fe0000" d="M 24.5,444.5 C 25.8333,445.167 25.8333,445.167 24.5,444.5 Z"/></g>
<g><path style="opacity:0.827" fill="#6e0104" d="M 102.5,451.5 C 104.404,451.738 105.738,452.738 106.5,454.5C 104.596,454.262 103.262,453.262 102.5,451.5 Z"/></g>
<g><path style="opacity:0.016" fill="#9e0306" d="M 395.5,452.5 C 395.027,453.906 394.027,454.573 392.5,454.5C 392.973,453.094 393.973,452.427 395.5,452.5 Z"/></g>
<g><path style="opacity:0.647" fill="#720206" d="M 106.5,454.5 C 108.027,454.427 109.027,455.094 109.5,456.5C 107.973,456.573 106.973,455.906 106.5,454.5 Z"/></g>
<g><path style="opacity:0.639" fill="#820206" d="M 109.5,456.5 C 111.027,456.427 112.027,457.094 112.5,458.5C 110.973,458.573 109.973,457.906 109.5,456.5 Z"/></g>
<g><path style="opacity:0.071" fill="#970609" d="M 389.5,456.5 C 389.027,457.906 388.027,458.573 386.5,458.5C 386.973,457.094 387.973,456.427 389.5,456.5 Z"/></g>
<g><path style="opacity:0.004" fill="#fe0000" d="M 52.5,459.5 C 53.8333,460.167 53.8333,460.167 52.5,459.5 Z"/></g>
<g><path style="opacity:0.541" fill="#8c010c" d="M 112.5,458.5 C 114.027,458.427 115.027,459.094 115.5,460.5C 113.973,460.573 112.973,459.906 112.5,458.5 Z"/></g>
<g><path style="opacity:0.02" fill="#9e031c" d="M 386.5,458.5 C 386.027,459.906 385.027,460.573 383.5,460.5C 383.973,459.094 384.973,458.427 386.5,458.5 Z"/></g>
<g><path style="opacity:1" fill="#3c0a04" d="M 115.5,460.5 C 117.604,460.201 119.604,460.534 121.5,461.5C 123.029,463.188 124.863,464.521 127,465.5C 127.464,466.094 127.631,466.761 127.5,467.5C 123.164,465.668 119.164,463.335 115.5,460.5 Z"/></g>
<g><path style="opacity:0.004" fill="#fe0000" d="M 437.5,464.5 C 438.833,465.167 438.833,465.167 437.5,464.5 Z"/></g>
<g><path style="opacity:1" fill="#530c08" d="M 373.5,466.5 C 370.76,468.56 367.76,470.226 364.5,471.5C 366.279,470.33 367.279,468.664 367.5,466.5C 369.5,466.5 371.5,466.5 373.5,466.5 Z"/></g>
<g><path style="opacity:1" fill="#340b03" d="M 127.5,467.5 C 129.939,468.053 132.273,468.053 134.5,467.5C 135.518,469.825 136.851,471.825 138.5,473.5C 134.345,472.258 130.678,470.258 127.5,467.5 Z"/></g>
<g><path style="opacity:0.078" fill="#94060f" d="M 364.5,471.5 C 363.486,472.674 362.153,473.34 360.5,473.5C 361.287,471.896 362.62,471.229 364.5,471.5 Z"/></g>
<g><path style="opacity:1" fill="#3b0b04" d="M 138.5,473.5 C 141.167,473.833 143.833,474.167 146.5,474.5C 146.5,475.5 146.5,476.5 146.5,477.5C 143.515,476.674 140.849,475.341 138.5,473.5 Z"/></g>
<g><path style="opacity:1" fill="#580d0b" d="M 360.5,473.5 C 358.151,475.341 355.485,476.674 352.5,477.5C 352.5,476.5 352.5,475.5 352.5,474.5C 355.206,474.425 357.873,474.092 360.5,473.5 Z"/></g>
<g><path style="opacity:0.792" fill="#800208" d="M 352.5,477.5 C 351.07,478.537 349.403,479.204 347.5,479.5C 348.635,477.787 350.302,477.12 352.5,477.5 Z"/></g>
<g><path style="opacity:1" fill="#3e0a04" d="M 147.5,477.5 C 154.638,478.502 160.972,481.169 166.5,485.5C 159.764,483.627 153.43,480.961 147.5,477.5 Z"/></g>
<g><path style="opacity:0.004" fill="#fe0000" d="M 367.5,479.5 C 368.833,480.167 368.833,480.167 367.5,479.5 Z"/></g>
<g><path style="opacity:0.082" fill="#930c0f" d="M 347.5,479.5 C 346.486,480.674 345.153,481.34 343.5,481.5C 344.287,479.896 345.62,479.229 347.5,479.5 Z"/></g>
<g><path style="opacity:1" fill="#470b05" d="M 342.5,481.5 C 339.482,483.4 336.149,484.733 332.5,485.5C 331.833,485.5 331.167,485.5 330.5,485.5C 330.804,484.85 331.137,484.183 331.5,483.5C 335.133,482.588 338.8,481.921 342.5,481.5 Z"/></g>
<g><path style="opacity:0.918" fill="#840205" d="M 166.5,485.5 C 168.698,485.12 170.365,485.787 171.5,487.5C 169.597,487.204 167.93,486.537 166.5,485.5 Z"/></g>
<g><path style="opacity:0.004" fill="#fe0000" d="M 418.5,485.5 C 419.833,486.167 419.833,486.167 418.5,485.5 Z"/></g>
<g><path style="opacity:0.012" fill="#8e0307" d="M 330.5,485.5 C 331.167,485.5 331.833,485.5 332.5,485.5C 329.785,487.072 326.785,488.072 323.5,488.5C 325.509,486.935 327.843,485.935 330.5,485.5 Z"/></g>
<g><path style="opacity:1" fill="#65050d" d="M 172.5,487.5 C 175.228,487.171 177.562,487.837 179.5,489.5C 176.848,489.59 174.515,488.924 172.5,487.5 Z"/></g>
<g><path style="opacity:1" fill="#4f0703" d="M 179.5,489.5 C 182.839,489.89 186.173,490.39 189.5,491C 190.056,491.383 190.389,491.883 190.5,492.5C 186.521,492.258 182.854,491.258 179.5,489.5 Z"/></g>
<g><path style="opacity:0.471" fill="#8a0508" d="M 319.5,489.5 C 317.485,490.924 315.152,491.59 312.5,491.5C 312.611,490.883 312.944,490.383 313.5,490C 315.473,489.505 317.473,489.338 319.5,489.5 Z"/></g>
<g><path style="opacity:1" fill="#510504" d="M 190.5,492.5 C 193.187,492.336 195.854,492.503 198.5,493C 200.653,493.099 202.319,493.933 203.5,495.5C 198.908,495.118 194.575,494.118 190.5,492.5 Z"/></g>
<g><path style="opacity:1" fill="#6b0207" d="M 204.5,495.5 C 212.396,495.765 220.063,496.765 227.5,498.5C 219.583,498.386 211.916,497.386 204.5,495.5 Z"/></g>
<g><path style="opacity:0.004" fill="#fe0000" d="M 462.5,495.5 C 463.833,496.167 463.833,496.167 462.5,495.5 Z"/></g>
<g><path style="opacity:0.982" fill="#2d0c05" d="M 288.5,496.5 C 282.5,497.5 276.5,498.5 270.5,499.5C 264.5,499.5 258.5,499.5 252.5,499.5C 253.392,497.286 255.058,496.286 257.5,496.5C 267.739,496.635 278.072,496.635 288.5,496.5 Z"/></g>
</svg>
